<?xml version="1.0" encoding="UTF-8" standalone="no"?>
<!-- Created with Inkscape (http://www.inkscape.org/) -->

<svg
   width="634.52777"
   height="64.973434"
   viewBox="0 0 167.88547 17.190888"
   version="1.1"
   id="svg5"
   sodipodi:docname="donald.svg"
   inkscape:version="1.1 (c68e22c387, 2021-05-23)"
   xmlns:inkscape="http://www.inkscape.org/namespaces/inkscape"
   xmlns:sodipodi="http://sodipodi.sourceforge.net/DTD/sodipodi-0.dtd"
   xmlns="http://www.w3.org/2000/svg"
   xmlns:svg="http://www.w3.org/2000/svg">
  <sodipodi:namedview
     id="namedview7"
     pagecolor="#ffffff"
     bordercolor="#666666"
     borderopacity="1.0"
     inkscape:pageshadow="2"
     inkscape:pageopacity="0.0"
     inkscape:pagecheckerboard="0"
     inkscape:document-units="px"
     showgrid="false"
     inkscape:zoom="1.4467452"
     inkscape:cx="299.98372"
     inkscape:cy="92.276097"
     inkscape:window-width="1920"
     inkscape:window-height="1001"
     inkscape:window-x="-9"
     inkscape:window-y="-9"
     inkscape:window-maximized="1"
     inkscape:current-layer="layer2"
     units="px"
     fit-margin-top="0"
     fit-margin-left="0"
     fit-margin-right="0"
     fit-margin-bottom="0" />
  <defs
     id="defs2" />
  <g
     inkscape:label="Layer 1"
     inkscape:groupmode="layer"
     id="layer1"
     style="display:none"
     transform="translate(-14.081896,-59.985221)">
    <rect
       style="fill:#00ffff;stroke-width:0.264583"
       id="rect6624"
       width="131.23334"
       height="17.4625"
       x="15.727832"
       y="59.985222" />
    <path
       style="fill:#0000ff;stroke-width:1.38241"
       d="M 59.443776,259.20251 V 226.7158 h 247.452004 247.452 v 32.48671 32.48672 H 306.89578 59.443776 Z"
       id="path6737"
       transform="scale(0.26458333)" />
    <path
       style="fill:#0000ff;stroke-width:0.440395"
       d="M 12.801724,67.445664 V 56.617932 H 88.149016 163.49631 V 67.445664 78.273398 H 88.149016 12.801724 Z"
       id="path6813" />
  </g>
  <g
     inkscape:groupmode="layer"
     id="layer2"
     inkscape:label="Layer 2"
     transform="translate(-14.081896,-59.985221)"
     style="display:inline">
    <g
       aria-label="UNITED NATIONS SYSTEM"
       id="text30849"
       style="font-weight:300;font-size:4.93889px;line-height:1;font-family:'Sansa Pro';-inkscape-font-specification:'Sansa Pro Light';fill:#ffffff;stroke-width:0.264583">
      <path
         d="m 40.437982,66.059828 c 0.849489,0 1.234722,-0.424744 1.234722,-1.274233 V 62.31615 h -0.251883 v 2.548467 c 0,0.637117 -0.345722,0.963083 -0.982839,0.963083 -0.637117,0 -0.982839,-0.325966 -0.982839,-0.963083 V 62.31615 h -0.251884 v 2.469445 c 0,0.869244 0.365478,1.274233 1.234723,1.274233 z"
         id="path18626" />
      <path
         d="m 42.561699,66.020317 h 0.251884 v -3.165828 l 2.024945,3.165828 h 0.192616 V 62.31615 h -0.251883 v 3.165828 L 42.754316,62.31615 h -0.192617 z"
         id="path18628" />
      <path
         d="m 45.860875,66.020317 h 0.251883 V 62.31615 h -0.251883 z"
         id="path18630" />
      <path
         d="m 47.885814,66.020317 h 0.246944 v -3.47204 h 1.16064 V 62.31615 h -2.642307 v 0.232127 h 1.234723 z"
         id="path18632" />
      <path
         d="m 50.700982,66.020317 h 1.096433 v -0.232128 h -1.116189 c -0.404989,0 -0.597606,-0.192616 -0.597606,-0.597605 v -1.022351 h 1.56069 v -0.232127 h -1.56069 v -1.387829 h 1.713795 V 62.31615 h -1.965678 v 2.854678 c 0,0.57785 0.286456,0.849489 0.869245,0.849489 z"
         id="path18634" />
      <path
         d="m 52.572812,66.020317 h 1.11619 c 0.987778,0 1.46685,-0.637117 1.46685,-1.619956 v -0.543278 c 0,-1.037167 -0.498828,-1.540933 -1.540934,-1.540933 h -1.042106 z m 0.251884,-0.232128 v -3.239912 h 0.829733 c 0.864306,0 1.249539,0.444501 1.249539,1.308806 v 0.543278 c 0,0.849489 -0.325966,1.387828 -1.175455,1.387828 z"
         id="path18636" />
      <path
         d="m 57.244989,66.020317 h 0.251883 v -3.165828 l 2.024945,3.165828 h 0.192617 V 62.31615 H 59.46255 v 3.165828 L 57.437605,62.31615 h -0.192616 z"
         id="path18638" />
      <path
         d="m 60.233014,66.020317 h 0.271639 c 0.103717,-0.454378 0.182739,-0.740833 0.276578,-1.081617 h 1.679222 c 0.09878,0.335845 0.172861,0.632178 0.281517,1.081617 h 0.271639 v -0.03951 C 62.860503,65.323934 62.74197,64.958456 62.588864,64.439872 62.356737,63.64965 61.931992,62.607544 61.778887,62.31615 h -0.311151 c -0.153105,0.291394 -0.57785,1.3335 -0.809978,2.123722 -0.153105,0.518584 -0.2667,0.884062 -0.424744,1.540934 z m 0.696383,-1.580445 c 0.192617,-0.656872 0.484012,-1.407583 0.696384,-1.891595 0.207433,0.484012 0.498828,1.234723 0.691445,1.891595 0.02469,0.09878 0.05433,0.182739 0.07902,0.2667 h -1.545873 c 0.0247,-0.08396 0.04939,-0.167922 0.07902,-0.2667 z"
         id="path18640" />
      <path
         d="M 64.164355,66.020317 H 64.4113 v -3.47204 h 1.160639 V 62.31615 h -2.642306 v 0.232127 h 1.234722 z"
         id="path18642" />
      <path
         d="m 66.110278,66.020317 h 0.251884 V 62.31615 h -0.251884 z"
         id="path18644" />
      <path
         d="m 68.52045,66.059828 c 1.022351,0 1.42734,-0.790222 1.42734,-1.812572 v -0.158045 c 0,-1.02235 -0.404989,-1.812573 -1.42734,-1.812573 -1.02235,0 -1.427339,0.790223 -1.427339,1.812573 v 0.158045 c 0,1.02235 0.404989,1.812572 1.427339,1.812572 z m 0,-0.232128 c -0.889,0 -1.180394,-0.696383 -1.180394,-1.580444 v -0.158045 c 0,-0.884061 0.291394,-1.580445 1.180394,-1.580445 0.884062,0 1.175456,0.696384 1.175456,1.580445 v 0.158045 c 0,0.884061 -0.291394,1.580444 -1.175456,1.580444 z"
         id="path18646" />
      <path
         d="m 70.678737,66.020317 h 0.251883 v -3.165828 l 2.024945,3.165828 h 0.192617 V 62.31615 h -0.251883 v 3.165828 L 70.871354,62.31615 h -0.192617 z"
         id="path18648" />
      <path
         d="m 74.689112,66.059828 h 0.158045 c 0.651933,0 1.116189,-0.365478 1.116189,-1.02235 0,-0.597606 -0.325967,-0.859367 -0.829733,-1.002595 l -0.538339,-0.158044 c -0.296334,-0.07902 -0.523523,-0.2667 -0.523523,-0.637117 0,-0.518583 0.370417,-0.730956 0.889,-0.730956 h 0.07902 c 0.246944,0 0.617361,0.07902 0.790222,0.13335 h 0.03951 V 62.414927 C 75.657131,62.335907 75.286714,62.276638 75.03977,62.276638 H 74.9805 c -0.656872,0 -1.1557,0.311151 -1.1557,0.963084 0,0.543278 0.306211,0.765528 0.809978,0.908756 l 0.538339,0.153105 c 0.345722,0.103717 0.538339,0.330906 0.538339,0.735895 0,0.498828 -0.345723,0.790222 -0.849489,0.790222 h -0.172862 c -0.246944,0 -0.691444,-0.09878 -0.884061,-0.172861 h -0.03951 v 0.251884 c 0.2667,0.09384 0.676628,0.153105 0.923572,0.153105 z"
         id="path18650" />
      <path
         d="m 78.724173,66.059828 h 0.158045 c 0.651933,0 1.116189,-0.365478 1.116189,-1.02235 0,-0.597606 -0.325967,-0.859367 -0.829734,-1.002595 l -0.538339,-0.158044 c -0.296333,-0.07902 -0.523522,-0.2667 -0.523522,-0.637117 0,-0.518583 0.370417,-0.730956 0.889,-0.730956 h 0.07902 c 0.246944,0 0.617361,0.07902 0.790222,0.13335 h 0.03951 v -0.227189 c -0.212372,-0.07902 -0.582789,-0.138289 -0.829733,-0.138289 h -0.05927 c -0.656873,0 -1.1557,0.311151 -1.1557,0.963084 0,0.543278 0.306211,0.765528 0.809978,0.908756 l 0.538339,0.153105 c 0.345722,0.103717 0.538339,0.330906 0.538339,0.735895 0,0.498828 -0.345723,0.790222 -0.84949,0.790222 h -0.172861 c -0.246944,0 -0.691444,-0.09878 -0.884061,-0.172861 h -0.03951 v 0.251884 c 0.2667,0.09384 0.676628,0.153105 0.923572,0.153105 z"
         id="path18652" />
      <path
         d="m 81.544272,66.020317 h 0.251884 V 64.4942 l 1.1557,-2.138539 v -0.03951 h -0.251884 l -1.02235,1.91135 -1.042106,-1.91135 h -0.251883 v 0.03951 l 1.160639,2.138539 z"
         id="path18654" />
      <path
         d="m 84.221144,66.059828 h 0.158045 c 0.651933,0 1.116189,-0.365478 1.116189,-1.02235 0,-0.597606 -0.325967,-0.859367 -0.829733,-1.002595 l -0.538339,-0.158044 c -0.296334,-0.07902 -0.523523,-0.2667 -0.523523,-0.637117 0,-0.518583 0.370417,-0.730956 0.889,-0.730956 h 0.07902 c 0.246944,0 0.617361,0.07902 0.790222,0.13335 h 0.03951 v -0.227189 c -0.212372,-0.07902 -0.582789,-0.138289 -0.829733,-0.138289 h -0.05927 c -0.656872,0 -1.1557,0.311151 -1.1557,0.963084 0,0.543278 0.306211,0.765528 0.809978,0.908756 l 0.538339,0.153105 c 0.345722,0.103717 0.538339,0.330906 0.538339,0.735895 0,0.498828 -0.345723,0.790222 -0.849489,0.790222 h -0.172862 c -0.246944,0 -0.691444,-0.09878 -0.884061,-0.172861 h -0.03951 v 0.251884 c 0.2667,0.09384 0.676628,0.153105 0.923572,0.153105 z"
         id="path18656" />
      <path
         d="m 87.080754,66.020317 h 0.246945 v -3.47204 h 1.160639 V 62.31615 h -2.642306 v 0.232127 h 1.234722 z"
         id="path18658" />
      <path
         d="m 89.89592,66.020317 h 1.096434 v -0.232128 h -1.116189 c -0.404989,0 -0.597606,-0.192616 -0.597606,-0.597605 v -1.022351 h 1.560689 v -0.232127 h -1.560689 v -1.387829 h 1.713795 V 62.31615 h -1.965678 v 2.854678 c 0,0.57785 0.286455,0.849489 0.869244,0.849489 z"
         id="path18660" />
      <path
         d="m 91.767753,66.020317 h 0.251883 v -3.185584 l 1.195212,1.718734 h 0.07408 l 1.20015,-1.718734 v 3.185584 h 0.246945 V 62.31615 H 94.563162 L 93.254356,64.207744 91.940611,62.31615 H 91.76775 Z"
         id="path18662" />
    </g>
    <g
       aria-label="Duty Station Codes - Request Form"
       id="text35721"
       style="font-weight:600;font-size:7.05556px;line-height:1.25;font-family:'Sansa Pro';-inkscape-font-specification:'Sansa Pro Semi-Bold';fill:#ffffff;stroke-width:0.264583">
      <path
         d="m 39.026584,73.374542 h 1.813279 c 1.672168,0 2.370668,-0.959556 2.370668,-2.33539 v -0.733778 c 0,-1.404057 -0.790223,-2.222502 -2.434168,-2.222502 h -1.749779 z m 0.910167,-0.762 v -3.767669 h 0.839612 c 0.987778,0 1.502834,0.486833 1.502834,1.502834 v 0.642056 c 0,1.051278 -0.4445,1.622779 -1.439334,1.622779 z"
         id="path18551" />
      <path
         d="m 45.23547,73.430987 c 0.500945,0 0.832556,-0.197556 1.178279,-0.508001 l 0.232833,-0.211666 v 0.663222 h 0.867834 v -3.859391 h -0.867834 v 2.476501 l -0.225778,0.190501 c -0.232833,0.197555 -0.5715,0.493889 -0.881945,0.493889 -0.324556,0 -0.500945,-0.169334 -0.500945,-0.656167 V 69.515151 H 44.17008 v 2.631724 c 0,0.896056 0.402167,1.284112 1.06539,1.284112 z"
         id="path18553" />
      <path
         d="m 50.922251,73.374542 v -0.733778 h -0.388056 c -0.578556,0 -0.783167,-0.183445 -0.783167,-0.832556 v -1.559279 h 1.058334 v -0.733778 h -1.058334 v -0.931334 h -0.874889 v 0.931334 h -0.599723 v 0.733778 h 0.599723 v 1.735668 c 0,0.959556 0.557389,1.389945 1.453445,1.389945 z"
         id="path18555" />
      <path
         d="m 51.987628,74.700988 h 0.931334 c 1.25589,0 2.046112,-0.642056 2.046112,-1.912057 v -3.27378 h -0.874889 v 2.391835 c -0.268111,0.141111 -0.649112,0.275167 -1.008945,0.275167 -0.381,0 -0.592667,-0.183445 -0.592667,-0.670279 v -1.996723 h -0.87489 v 2.08139 c 0,0.931334 0.515056,1.333501 1.220612,1.333501 0.522112,0 0.931334,-0.204611 1.227668,-0.352778 h 0.02822 v 0.1905 c 0,0.860778 -0.416278,1.199445 -1.368779,1.199445 h -0.733778 z"
         id="path18557" />
      <path
         d="m 59.268956,73.430987 h 0.246945 c 1.135945,0 1.883834,-0.522112 1.883834,-1.545168 0,-0.952501 -0.543278,-1.305279 -1.199445,-1.495779 l -0.747889,-0.204611 c -0.36689,-0.105833 -0.656168,-0.239889 -0.656168,-0.691445 0,-0.515056 0.36689,-0.6985 0.903112,-0.6985 h 0.204611 c 0.338667,0 0.931334,0.09878 1.199446,0.183444 h 0.04939 V 68.231039 C 60.891735,68.125206 60.26379,68.026428 59.903956,68.026428 h -0.218722 c -1.051278,0 -1.806223,0.522111 -1.806223,1.467556 0,0.924279 0.578556,1.298223 1.128889,1.439334 l 0.762001,0.204612 c 0.409222,0.09878 0.705556,0.268111 0.705556,0.747889 0,0.5715 -0.402167,0.776112 -0.959556,0.776112 h -0.246945 c -0.437445,0 -1.079501,-0.134056 -1.368779,-0.218723 h -0.05644 v 0.754945 c 0.296333,0.105834 0.994834,0.232834 1.425223,0.232834 z"
         id="path18559" />
      <path
         d="m 64.553561,73.374542 v -0.733778 h -0.388055 c -0.578556,0 -0.783168,-0.183445 -0.783168,-0.832556 v -1.559279 h 1.058334 v -0.733778 h -1.058334 v -0.931334 h -0.874889 v 0.931334 h -0.599723 v 0.733778 h 0.599723 v 1.735668 c 0,0.959556 0.557389,1.389945 1.453445,1.389945 z"
         id="path18561" />
      <path
         d="m 66.239827,73.430987 c 0.458611,0 0.783167,-0.1905 1.086556,-0.458612 l 0.275167,-0.239889 v 0.642056 h 0.874889 v -3.859391 h -1.361723 c -1.100667,0 -2.039057,0.747889 -2.039057,1.947334 v 0.663223 c 0,0.881945 0.472723,1.305279 1.164168,1.305279 z m 1.143001,-1.227668 c -0.218723,0.1905 -0.585612,0.472723 -0.903112,0.472723 -0.3175,0 -0.529167,-0.148167 -0.529167,-0.635001 v -0.578556 c 0,-0.776111 0.479778,-1.213556 1.213556,-1.213556 h 0.437445 v 1.770946 z"
         id="path18563" />
      <path
         d="m 71.884271,73.374542 v -0.733778 h -0.388056 c -0.578556,0 -0.783167,-0.183445 -0.783167,-0.832556 v -1.559279 h 1.058334 v -0.733778 h -1.058334 v -0.931334 h -0.87489 v 0.931334 h -0.599722 v 0.733778 h 0.599722 v 1.735668 c 0,0.959556 0.55739,1.389945 1.453446,1.389945 z"
         id="path18565" />
      <path
         d="m 72.730926,68.873095 h 0.87489 v -0.790223 h -0.87489 z m 0,4.501447 h 0.87489 v -3.859391 h -1.488723 v 0.733778 h 0.613833 z"
         id="path18567" />
      <path
         d="m 76.364535,73.430987 c 1.220612,0 1.813279,-0.663223 1.813279,-2.01789 0,-1.248835 -0.5715,-1.954391 -1.813279,-1.954391 -1.185334,0 -1.813279,0.705556 -1.813279,1.954391 0,1.354667 0.592667,2.01789 1.813279,2.01789 z m 0,-0.754945 c -0.705556,0 -0.938389,-0.472723 -0.938389,-1.262945 0,-0.790223 0.232833,-1.199446 0.938389,-1.199446 0.705556,0 0.93839,0.409223 0.93839,1.199446 0,0.790222 -0.232834,1.262945 -0.93839,1.262945 z"
         id="path18569" />
      <path
         d="m 79.130306,73.374542 h 0.874889 v -2.483557 l 0.218722,-0.183444 c 0.225778,-0.197556 0.564445,-0.49389 0.881945,-0.49389 0.317501,0 0.500945,0.169334 0.500945,0.663223 v 2.497668 h 0.87489 v -2.631724 c 0,-0.896056 -0.409223,-1.284112 -1.079501,-1.284112 -0.493889,0 -0.832556,0.211667 -1.171223,0.515056 l -0.225778,0.204612 v -0.663223 h -0.874889 z"
         id="path18571" />
      <path
         d="m 87.702802,73.430987 h 0.331611 c 0.437445,0 1.008946,-0.169334 1.178279,-0.246945 v -0.740834 h -0.05644 c -0.225778,0.08467 -0.726723,0.218723 -1.121835,0.218723 h -0.331611 c -0.938389,0 -1.481667,-0.606779 -1.481667,-1.622779 v -0.642056 c 0,-1.107723 0.627944,-1.601612 1.538112,-1.601612 0.211666,0 0.465667,0.02117 0.620889,0.07055 v 0.726723 h 0.832556 v -1.333501 c -0.289278,-0.112889 -0.832556,-0.232833 -1.340556,-0.232833 -1.545168,0 -2.582335,0.846667 -2.582335,2.391835 v 0.620889 c 0,1.453445 0.8255,2.391835 2.413001,2.391835 z"
         id="path18573" />
      <path
         d="m 91.717414,73.430987 c 1.220612,0 1.813279,-0.663223 1.813279,-2.01789 0,-1.248835 -0.571501,-1.954391 -1.813279,-1.954391 -1.185334,0 -1.813279,0.705556 -1.813279,1.954391 0,1.354667 0.592667,2.01789 1.813279,2.01789 z m 0,-0.754945 c -0.705556,0 -0.93839,-0.472723 -0.93839,-1.262945 0,-0.790223 0.232834,-1.199446 0.93839,-1.199446 0.705556,0 0.938389,0.409223 0.938389,1.199446 0,0.790222 -0.232833,1.262945 -0.938389,1.262945 z"
         id="path18575" />
      <path
         d="m 95.435685,73.430987 c 0.458611,0 0.783167,-0.1905 1.086556,-0.458612 l 0.275167,-0.239889 v 0.642056 h 0.874889 v -5.29167 h -0.874889 v 1.432279 h -0.486834 c -1.100667,0 -2.039057,0.747889 -2.039057,1.947334 v 0.663223 c 0,0.881945 0.472723,1.305279 1.164168,1.305279 z m 1.143001,-1.227668 c -0.218723,0.1905 -0.585612,0.472723 -0.903112,0.472723 -0.3175,0 -0.529167,-0.148167 -0.529167,-0.635001 v -0.578556 c 0,-0.776111 0.479778,-1.213556 1.213556,-1.213556 h 0.437445 v 1.770946 z"
         id="path18577" />
      <path
         d="m 100.4169,73.430987 c 0.40217,0 0.9525,-0.127 1.24884,-0.232834 v -0.733778 h -0.0564 c -0.27516,0.09878 -0.71966,0.211667 -1.143,0.211667 -0.529164,0 -0.952497,-0.197556 -0.952497,-0.790223 v -0.141111 h 1.107727 c 0.79022,0 1.31233,-0.366889 1.31233,-1.114779 0,-0.853722 -0.64911,-1.171223 -1.50283,-1.171223 -1.016005,0 -1.792117,0.585612 -1.792117,1.658057 v 0.754945 c 0,1.114778 0.74789,1.559279 1.777997,1.559279 z m -0.903107,-2.328335 c 0,-0.649112 0.338667,-0.910167 0.917227,-0.910167 0.38805,0 0.67027,0.09172 0.67027,0.465667 0,0.331611 -0.16227,0.500944 -0.61383,0.500944 h -0.973667 z"
         id="path18579" />
      <path
         d="m 103.91645,73.430987 c 0.89606,0 1.72861,-0.282223 1.72861,-1.199446 0,-0.747889 -0.508,-1.001889 -1.0795,-1.128889 l -0.52211,-0.119945 c -0.23989,-0.05644 -0.4445,-0.105833 -0.4445,-0.381 0,-0.303389 0.35983,-0.402167 0.76906,-0.402167 0.36689,0 0.71261,0.05644 1.016,0.105834 h 0.0494 v -0.733779 c -0.27517,-0.05644 -0.66323,-0.112889 -1.04423,-0.112889 -0.98777,0 -1.68628,0.395112 -1.68628,1.157112 0,0.571501 0.35278,0.910167 0.97367,1.058334 l 0.59267,0.134056 c 0.26105,0.0635 0.47978,0.169333 0.47978,0.430389 0,0.352778 -0.40923,0.451556 -0.83256,0.451556 -0.37394,0 -0.79728,-0.05644 -1.15006,-0.134056 h -0.0494 v 0.733779 c 0.31044,0.08467 0.79022,0.141111 1.19944,0.141111 z"
         id="path18581" />
      <path
         d="m 108.23444,71.152041 h 2.17311 v -0.733778 h -2.17311 z"
         id="path18583" />
      <path
         d="m 113.24387,73.374542 h 0.91017 v -1.820334 h 0.91016 c 0.46567,0.359833 1.016,1.425223 1.11478,1.820334 h 0.97367 v -0.05644 c -0.0988,-0.388056 -0.65617,-1.524001 -1.24883,-2.046113 0.51505,-0.254 0.91722,-0.677333 0.91722,-1.524001 0,-1.213556 -0.62089,-1.665112 -1.77095,-1.665112 h -1.80622 z m 0.91017,-2.575279 v -1.95439 h 0.762 c 0.6985,0 0.97366,0.197555 0.97366,0.924278 0,0.663223 -0.27516,1.030112 -1.03011,1.030112 z"
         id="path18585" />
      <path
         d="m 119.49509,73.430987 c 0.40217,0 0.9525,-0.127 1.24883,-0.232834 v -0.733778 h -0.0564 c -0.27517,0.09878 -0.71967,0.211667 -1.143,0.211667 -0.52917,0 -0.9525,-0.197556 -0.9525,-0.790223 v -0.141111 h 1.10772 c 0.79022,0 1.31234,-0.366889 1.31234,-1.114779 0,-0.853722 -0.64912,-1.171223 -1.50284,-1.171223 -1.016,0 -1.79211,0.585612 -1.79211,1.658057 v 0.754945 c 0,1.114778 0.74789,1.559279 1.778,1.559279 z m -0.90311,-2.328335 c 0,-0.649112 0.33867,-0.910167 0.91722,-0.910167 0.38806,0 0.67028,0.09172 0.67028,0.465667 0,0.331611 -0.16228,0.500944 -0.61383,0.500944 h -0.97367 z"
         id="path18587" />
      <path
         d="m 124.30697,74.700988 h 0.87489 v -5.185837 h -1.36172 c -1.10067,0 -2.03906,0.747889 -2.03906,1.947334 v 0.663223 c 0,0.881945 0.47272,1.305279 1.16417,1.305279 0.45861,0 0.78317,-0.1905 1.08655,-0.458612 l 0.27517,-0.239889 z m -0.21872,-2.497669 c -0.21872,0.1905 -0.58561,0.472723 -0.90311,0.472723 -0.3175,0 -0.52917,-0.148167 -0.52917,-0.635001 v -0.578556 c 0,-0.776111 0.47978,-1.213556 1.21356,-1.213556 h 0.43744 v 1.770946 z"
         id="path18589" />
      <path
         d="m 127.4608,73.430987 c 0.50095,0 0.83256,-0.197556 1.17828,-0.508001 l 0.23284,-0.211666 v 0.663222 h 0.86783 v -3.859391 h -0.86783 v 2.476501 l -0.22578,0.190501 c -0.23283,0.197555 -0.5715,0.493889 -0.88195,0.493889 -0.32455,0 -0.50094,-0.169334 -0.50094,-0.656167 v -2.504724 h -0.86783 v 2.631724 c 0,0.896056 0.40216,1.284112 1.06538,1.284112 z"
         id="path18591" />
      <path
         d="m 132.48436,73.430987 c 0.40217,0 0.9525,-0.127 1.24884,-0.232834 v -0.733778 h -0.0565 c -0.27516,0.09878 -0.71966,0.211667 -1.143,0.211667 -0.52916,0 -0.9525,-0.197556 -0.9525,-0.790223 v -0.141111 h 1.10772 c 0.79023,0 1.31234,-0.366889 1.31234,-1.114779 0,-0.853722 -0.64911,-1.171223 -1.50284,-1.171223 -1.016,0 -1.79211,0.585612 -1.79211,1.658057 v 0.754945 c 0,1.114778 0.74789,1.559279 1.778,1.559279 z m -0.90311,-2.328335 c 0,-0.649112 0.33867,-0.910167 0.91722,-0.910167 0.38806,0 0.67028,0.09172 0.67028,0.465667 0,0.331611 -0.16228,0.500944 -0.61383,0.500944 h -0.97367 z"
         id="path18593" />
      <path
         d="m 135.98391,73.430987 c 0.89606,0 1.72861,-0.282223 1.72861,-1.199446 0,-0.747889 -0.508,-1.001889 -1.0795,-1.128889 l -0.52211,-0.119945 c -0.23989,-0.05644 -0.4445,-0.105833 -0.4445,-0.381 0,-0.303389 0.35983,-0.402167 0.76906,-0.402167 0.36689,0 0.71261,0.05644 1.016,0.105834 h 0.0494 v -0.733779 c -0.27517,-0.05644 -0.66323,-0.112889 -1.04423,-0.112889 -0.98778,0 -1.68628,0.395112 -1.68628,1.157112 0,0.571501 0.35278,0.910167 0.97367,1.058334 l 0.59267,0.134056 c 0.26105,0.0635 0.47978,0.169333 0.47978,0.430389 0,0.352778 -0.40923,0.451556 -0.83256,0.451556 -0.37394,0 -0.79728,-0.05644 -1.15006,-0.134056 h -0.0494 v 0.733779 c 0.31045,0.08467 0.79023,0.141111 1.19945,0.141111 z"
         id="path18595" />
      <path
         d="m 140.8734,73.374542 v -0.733778 h -0.38805 c -0.57856,0 -0.78317,-0.183445 -0.78317,-0.832556 v -1.559279 h 1.05833 v -0.733778 h -1.05833 v -0.931334 h -0.87489 v 0.931334 h -0.59972 v 0.733778 h 0.59972 v 1.735668 c 0,0.959556 0.55739,1.389945 1.45344,1.389945 z"
         id="path18597" />
      <path
         d="m 143.48394,73.374542 h 0.91017 v -2.27189 h 1.98967 V 70.32654 h -1.98967 v -0.677334 c 0,-0.543278 0.21167,-0.804333 0.71261,-0.804333 h 1.38995 v -0.762001 h -1.38995 c -1.05128,0 -1.62278,0.515056 -1.62278,1.566334 z"
         id="path18599" />
      <path
         d="m 148.93082,73.430987 c 1.22061,0 1.81328,-0.663223 1.81328,-2.01789 0,-1.248835 -0.5715,-1.954391 -1.81328,-1.954391 -1.18533,0 -1.81328,0.705556 -1.81328,1.954391 0,1.354667 0.59267,2.01789 1.81328,2.01789 z m 0,-0.754945 c -0.70555,0 -0.93839,-0.472723 -0.93839,-1.262945 0,-0.790223 0.23284,-1.199446 0.93839,-1.199446 0.70556,0 0.93839,0.409223 0.93839,1.199446 0,0.790222 -0.23283,1.262945 -0.93839,1.262945 z"
         id="path18601" />
      <path
         d="m 151.68954,73.374542 h 0.87489 v -2.483557 c 0.30339,-0.303389 0.54328,-0.578556 1.04422,-0.578556 h 0.34573 v -0.818445 h -0.27517 c -0.49389,0 -0.86783,0.338667 -1.11478,0.726723 v -0.705556 h -0.87489 z"
         id="path18603" />
      <path
         d="m 154.63169,73.374542 h 0.87489 v -2.483557 l 0.20461,-0.183444 c 0.22578,-0.204612 0.55739,-0.49389 0.86784,-0.49389 0.32455,0 0.508,0.169334 0.508,0.663223 v 2.497668 h 0.86783 v -2.483557 l 0.20461,-0.183444 c 0.22578,-0.204612 0.55739,-0.49389 0.87489,-0.49389 0.3175,0 0.49389,0.169334 0.49389,0.663223 v 2.497668 h 0.87489 v -2.631724 c 0,-0.896056 -0.40216,-1.284112 -1.07244,-1.284112 -0.49389,0 -0.8255,0.204612 -1.15711,0.515056 l -0.24695,0.232834 h -0.0353 c -0.14111,-0.508001 -0.49389,-0.74789 -1.00894,-0.74789 -0.49389,0 -0.83961,0.197556 -1.16417,0.515056 l -0.21167,0.204612 v -0.663223 h -0.87489 z"
         id="path18605" />
    </g>
    <g
       id="surface1"
       transform="matrix(0.35277777,0,0,0.35277777,14.375977,59.260992)">
      <path
         style="fill:#ffffff;fill-opacity:1;fill-rule:nonzero;stroke:none"
         d="m 4.6875,30.542969 0.152344,0.125 c -0.164063,-1.136719 -0.25,-2.371094 0.074218,-3.457031 0.484376,-1.742188 1.09375,-3.433594 1.40625,-5.238282 0.246094,-1.402344 0.535157,-2.980468 0.371094,-4.328125 -0.1875,0.730469 -0.371094,1.449219 -0.769531,2.082031 -1.507813,2.359376 -3.050781,5.136719 -1.992187,8.140626 -0.023438,0.03516 -0.0625,0.07422 -0.097657,0.05078 -0.425781,-1 -0.523437,-2.121094 -0.796875,-3.183594 -0.734375,-2.8125 -2.863281,-5.171875 -2.242187,-8.429687 -0.335938,0.707031 -0.457031,1.503906 -0.632813,2.273437 -0.371094,1.992187 0,4.101563 0.535156,5.945313 0.660157,2.28125 2.863282,3.921874 3.992188,6.019532 z m 0,0"
         id="path17321" />
      <path
         style="fill:#ffffff;fill-opacity:1;fill-rule:nonzero;stroke:none"
         d="m 4.117188,15.925781 c 0.496093,-1.035156 1.304687,-2.019531 2.277343,-2.75 2.136719,-1.640625 4.476563,-3.761719 4.515625,-6.539062 -0.722656,1.996093 -2.875,2.828125 -4.304687,4.191406 -0.757813,0.71875 -1.34375,1.589844 -1.679688,2.5 L 4.875,13.289062 C 5.050781,12.480469 5.386719,11.761719 5.621094,10.980469 6.242188,8.859375 6.132812,6.324219 8.171875,4.894531 7.128906,5.175781 6.242188,5.855469 5.460938,6.738281 3.804688,8.59375 3.953125,11.332031 4.167969,13.757812 4.242188,14.511719 4.203125,15.15625 4.117188,15.925781 Z m 0,0"
         id="path17323" />
      <path
         style="fill:#ffffff;fill-opacity:1;fill-rule:nonzero;stroke:none"
         d="M 6.605469,9.882812 C 7.75,8.796875 9.066406,7.988281 10.039062,6.699219 11.195312,5.148438 12.203125,3.40625 13.722656,2.070312 11.667969,2.878906 9.453125,3.710938 8.121094,5.855469 c -0.78125,1.25 -0.90625,2.726562 -1.515625,4.027343 z m 0,0"
         id="path17325" />
      <path
         style="fill:#ffffff;fill-opacity:1;fill-rule:nonzero;stroke:none"
         d="M 7.464844,15.371094 C 7.960938,14.347656 8.273438,13.1875 8.410156,12.066406 8.222656,12.542969 7.9375,12.984375 7.539062,13.363281 5.871094,14.96875 3.917969,16.53125 3.542969,18.804688 3.496094,19.132812 3.457031,19.460938 3.371094,19.777344 3.296875,19.8125 3.296875,19.726562 3.269531,19.699219 L 3.480469,16.898438 C 3.679688,14.160156 2.261719,11.117188 3.816406,8.707031 3.769531,8.695312 3.730469,8.746094 3.695312,8.757812 c -1.421874,1.832032 -2.367187,3.851563 -2.367187,6.3125 0,3.039063 1.730469,5.171876 1.941406,8.023438 0.449219,-2.976562 2.914063,-5.097656 4.195313,-7.722656 z m 0,0"
         id="path17327" />
      <path
         style="fill:#ffffff;fill-opacity:1;fill-rule:nonzero;stroke:none"
         d="M 4.167969,34.0625 C 5.769531,35.351562 7.6875,36.347656 9.15625,37.484375 8.867188,36.738281 8.394531,36.058594 8.210938,35.289062 7.351562,31.765625 7.824219,27.675781 6.34375,24.421875 6.617188,26.277344 5.894531,27.917969 5.734375,29.683594 5.597656,31.136719 5.847656,32.546875 6.40625,33.761719 6.566406,34.125 6.867188,34.441406 6.953125,34.820312 6.417969,34.328125 6.03125,33.710938 5.671875,33.105469 3.941406,30.265625 0.320312,28.421875 0.0742188,24.964844 c -0.125,1.539062 0.0117187,3.167968 0.5078122,4.53125 0.6875,1.867187 2.027344,3.316406 3.585938,4.566406 z m 0,0"
         id="path17329" />
      <path
         style="fill:#ffffff;fill-opacity:1;fill-rule:nonzero;stroke:none"
         d="m 25.988281,43.390625 c -2.800781,0 -5.3125,1.375 -7.761719,2.410156 -2.230468,0.933594 -5.175781,0.757813 -7.15625,-0.632812 0.972657,1.238281 2.277344,2.007812 3.632813,2.527343 2.5,1.007813 5.425781,0.238282 7.566406,-1.148437 1.527344,-1 2.847657,-2.414063 4.675781,-2.414063 2.949219,0 6.046876,3.070313 8.695313,5.84375 0.410156,-0.339843 0.847656,-0.691406 1.183594,-1.082031 -2.773438,-2.675781 -6.695313,-5.503906 -10.835938,-5.503906 z m 0,0"
         id="path17331" />
      <path
         style="fill:#ffffff;fill-opacity:1;fill-rule:nonzero;stroke:none"
         d="m 20.988281,43.691406 c 0.433594,-0.113281 0.957031,-0.07422 1.355469,-0.226562 -1.667969,-0.339844 -3.273438,-0.855469 -4.566406,-2.054688 -1.855469,-1.71875 -3.496094,-3.546875 -5.472656,-4.886718 1.554687,2.121093 1.988281,5.199218 4.824218,6.273437 0.5,0.1875 1.082032,0.226563 1.519532,0.503906 -0.546876,0.08984 -1.019532,-0.08594 -1.53125,-0.199219 -3.65625,-0.796874 -8.109376,0.226563 -10.847657,-2.929687 1.03125,2.070313 3.171875,3.699219 5.238281,4.378906 C 14.679688,45.636719 18,44.4375 20.988281,43.691406 Z m 0,0"
         id="path17333" />
      <path
         style="fill:#ffffff;fill-opacity:1;fill-rule:nonzero;stroke:none"
         d="M 14.867188,42.140625 C 12.488281,40.195312 12.128906,37.28125 11.070312,34.730469 10.410156,33.140625 9.34375,31.714844 8.199219,30.328125 9.453125,32.875 8.90625,36.15625 10.535156,38.554688 11.046875,39.3125 11.753906,40.03125 12.414062,40.625 l -0.02344,0.03906 C 11.792969,40.386719 11.257812,39.957031 10.710938,39.503906 7.863281,37.09375 3.570312,36.789062 1.863281,32.863281 c 0.460938,2.878907 2.714844,5.429688 5.152344,7.042969 2.3125,1.539062 5.289063,1.375 7.851563,2.234375 z m 0,0"
         id="path17335" />
      <path
         style="fill:#ffffff;fill-opacity:1;fill-rule:nonzero;stroke:none"
         d="M 47.972656,6.699219 C 48.941406,8 50.261719,8.796875 51.40625,9.882812 50.796875,8.582031 50.671875,7.105469 49.898438,5.855469 48.570312,3.710938 46.355469,2.878906 44.300781,2.070312 c 1.492188,1.335938 2.5,3.066407 3.671875,4.628907 z m 0,0"
         id="path17337" />
      <path
         style="fill:#ffffff;fill-opacity:1;fill-rule:nonzero;stroke:none"
         d="m 52.386719,10.980469 c 0.226562,0.769531 0.5625,1.5 0.746093,2.308593 l -0.04687,0.03906 c -0.335938,-0.910156 -0.921876,-1.78125 -1.679688,-2.5 -1.433594,-1.375 -3.585938,-2.195313 -4.292969,-4.203125 0.03516,2.789062 2.375,4.910156 4.515625,6.539062 0.957032,0.730469 1.777344,1.714844 2.277344,2.75 -0.08594,-0.769531 -0.125,-1.414062 -0.05078,-2.15625 0.222656,-2.4375 0.359375,-5.164062 -1.28125,-7.019531 -0.785157,-0.882812 -1.667969,-1.578125 -2.710938,-1.84375 2.015625,1.429688 1.902344,3.964844 2.523438,6.085938 z m 0,0"
         id="path17339" />
      <path
         style="fill:#ffffff;fill-opacity:1;fill-rule:nonzero;stroke:none"
         d="m 54.527344,16.886719 0.210937,2.800781 c -0.02344,0.02734 -0.02344,0.101562 -0.09766,0.07813 -0.08984,-0.316406 -0.125,-0.644531 -0.175781,-0.972656 -0.37109,-2.261724 -2.33984,-3.835943 -3.992184,-5.441412 -0.398437,-0.378906 -0.683594,-0.820312 -0.871094,-1.300781 0.136719,1.125 0.449219,2.285157 0.945313,3.308594 1.28125,2.625 3.746094,4.746094 4.191406,7.734375 0.210938,-2.863281 1.941407,-4.984375 1.941407,-8.023438 0,-2.460937 -0.945313,-4.480468 -2.363282,-6.3125 -0.03906,-0.023437 -0.07422,-0.0625 -0.125,-0.050781 1.554688,2.410157 0.125,5.453125 0.335938,8.179688 z m 0,0"
         id="path17341" />
      <path
         style="fill:#ffffff;fill-opacity:1;fill-rule:nonzero;stroke:none"
         d="m 54.976562,24.722656 c -0.273437,1.0625 -0.375,2.195313 -0.796874,3.179688 -0.03906,0.02734 -0.07422,-0.02344 -0.101563,-0.04687 1.058594,-3.003907 -0.484375,-5.769531 -1.988281,-8.140625 -0.398438,-0.621094 -0.585938,-1.351563 -0.773438,-2.085938 -0.160156,1.363282 0.125,2.929688 0.375,4.332032 0.324219,1.804687 0.921875,3.496093 1.40625,5.238281 0.324219,1.082031 0.234375,2.308593 0.07422,3.457031 l 0.148437,-0.128906 c 1.121094,-2.09375 3.335938,-3.734375 4.007813,-6.03125 0.535156,-1.828125 0.90625,-3.949219 0.535156,-5.945313 -0.175781,-0.769531 -0.3125,-1.5625 -0.636719,-2.269531 0.609376,3.269531 -1.515624,5.628906 -2.25,8.441406 z m 0,0"
         id="path17343" />
      <path
         style="fill:#ffffff;fill-opacity:1;fill-rule:nonzero;stroke:none"
         d="m 39.773438,45.800781 c -2.464844,-1.035156 -4.964844,-2.410156 -7.765626,-2.410156 -4.128906,0 -8.058593,2.839844 -10.808593,5.503906 0.335937,0.390625 0.769531,0.753907 1.179687,1.082031 2.636719,-2.761718 5.75,-5.84375 8.699219,-5.84375 1.828125,0 3.144531,1.414063 4.675781,2.414063 2.128906,1.375 5.050782,2.15625 7.5625,1.148437 1.34375,-0.519531 2.652344,-1.289062 3.632813,-2.527343 C 44.960938,46.546875 42,46.734375 39.773438,45.800781 Z m 0,0"
         id="path17345" />
      <path
         style="fill:#ffffff;fill-opacity:1;fill-rule:nonzero;stroke:none"
         d="m 52.351562,33.078125 c -0.375,0.605469 -0.746093,1.238281 -1.28125,1.71875 0.08594,-0.367187 0.382813,-0.695313 0.546876,-1.0625 0.558593,-1.222656 0.808593,-2.625 0.671874,-4.074219 C 52.113281,27.890625 51.390625,26.25 51.679688,24.394531 50.1875,27.652344 50.671875,31.742188 49.8125,35.261719 c -0.1875,0.78125 -0.660156,1.464843 -0.945312,2.195312 1.46875,-1.136719 3.382812,-2.132812 4.988281,-3.417969 1.554687,-1.238281 2.898437,-2.703124 3.609375,-4.59375 0.507812,-1.363281 0.632812,-2.992187 0.507812,-4.53125 -0.261718,3.480469 -3.894531,5.324219 -5.621094,8.164063 z m 0,0"
         id="path17347" />
      <path
         style="fill:#ffffff;fill-opacity:1;fill-rule:nonzero;stroke:none"
         d="m 47.273438,39.503906 c -0.546876,0.453125 -1.082032,0.882813 -1.679688,1.160156 L 45.570312,40.625 c 0.660157,-0.605469 1.367188,-1.324219 1.878907,-2.070312 1.628906,-2.398438 1.082031,-5.691407 2.339843,-8.226563 -1.144531,1.386719 -2.214843,2.8125 -2.875,4.402344 -1.058593,2.550781 -1.417968,5.464843 -3.792968,7.410156 2.5625,-0.859375 5.535156,-0.695313 7.835937,-2.222656 2.425781,-1.613281 4.679688,-4.164063 5.152344,-7.042969 -1.695313,3.914062 -5.972656,4.21875 -8.835937,6.628906 z m 0,0"
         id="path17349" />
      <path
         style="fill:#ffffff;fill-opacity:1;fill-rule:nonzero;stroke:none"
         d="m 40.890625,43.113281 c -0.507813,0.113281 -0.980469,0.277344 -1.527344,0.199219 0.433594,-0.277344 1.007813,-0.3125 1.515625,-0.503906 2.835938,-1.085938 3.273438,-4.164063 4.828125,-6.273438 -1.976562,1.339844 -3.621093,3.167969 -5.472656,4.886719 -1.296875,1.199219 -2.898437,1.703125 -4.566406,2.054687 0.398437,0.152344 0.917969,0.117188 1.355469,0.230469 2.996093,0.753907 6.308593,1.941407 9.492187,0.871094 2.054687,-0.695313 4.191406,-2.324219 5.238281,-4.382813 -2.75,3.144532 -7.214844,2.132813 -10.863281,2.917969 z m 0,0"
         id="path17351" />
      <path
         style="fill:#ffffff;fill-opacity:1;fill-rule:nonzero;stroke:none"
         d="m 29,0.0234375 c -11.324219,0 -20.527344,9.3398435 -20.527344,20.8242185 0,11.488282 9.203125,20.824219 20.527344,20.824219 11.320312,0 20.527344,-9.335937 20.527344,-20.824219 C 49.527344,9.363281 40.320312,0.0234375 29,0.0234375 Z m 0,24.8007815 c -2.167969,0 -3.921875,-1.777344 -3.921875,-3.976563 0,-2.195312 1.753906,-3.972656 3.921875,-3.972656 2.164062,0 3.917969,1.777344 3.917969,3.972656 0,2.199219 -1.753907,3.976563 -3.917969,3.976563 z m 2.945312,-7.320313 c -0.71875,-0.65625 -1.652343,-1.070312 -2.683593,-1.136718 v -3.40625 c 1.953125,0.0625 3.730469,0.859374 5.0625,2.132812 z M 28.75,16.367188 c -1.03125,0.06641 -1.964844,0.480468 -2.6875,1.136718 l -2.375,-2.410156 c 1.328125,-1.273438 3.109375,-2.070312 5.0625,-2.132812 z m -3.035156,1.503906 c -0.648438,0.730468 -1.058594,1.679687 -1.121094,2.726562 h -3.359375 c 0.0625,-1.984375 0.847656,-3.789062 2.105469,-5.136718 z m -1.121094,3.230468 c 0.0625,1.046876 0.472656,1.992188 1.121094,2.726563 l -2.375,2.410156 c -1.257813,-1.351562 -2.042969,-3.15625 -2.105469,-5.136719 z m 1.46875,3.09375 c 0.722656,0.65625 1.65625,1.070313 2.6875,1.132813 v 3.410156 c -1.953125,-0.0625 -3.734375,-0.859375 -5.0625,-2.132812 z m 3.183594,1.121094 c 1.035156,-0.0625 1.96875,-0.480468 2.6875,-1.136718 l 2.378906,2.410156 c -1.332031,1.277344 -3.113281,2.070312 -5.066406,2.132812 z m 3.050781,-1.488281 c 0.644531,-0.734375 1.054687,-1.679687 1.117187,-2.726563 h 3.359376 c -0.0625,1.980469 -0.84375,3.785157 -2.101563,5.136719 z m 1.117187,-3.230469 c -0.0625,-1.046875 -0.472656,-1.996094 -1.117187,-2.726562 l 2.375,-2.410156 c 1.257813,1.347656 2.039063,3.152343 2.101563,5.136718 z m 1.257813,-5.855468 C 33.242188,13.378906 31.351562,12.519531 29.246094,12.457031 V 8.671875 c 3.125,0.0625 5.960937,1.347656 8.0625,3.394531 z M 28.75,12.457031 c -2.089844,0.0625 -3.992188,0.921875 -5.425781,2.285157 L 20.6875,12.066406 C 22.789062,10.019531 25.628906,8.734375 28.75,8.671875 Z m -5.773438,2.636719 c -1.34375,1.453125 -2.1875,3.371094 -2.25,5.503906 h -3.734374 c 0.0625,-3.167968 1.332031,-6.046875 3.347656,-8.179687 z m -2.238281,6.007812 c 0.0625,2.121094 0.90625,4.050782 2.25,5.503907 l -2.648437,2.675781 c -2.015625,-2.132812 -3.285156,-5.011719 -3.347656,-8.179688 z m 2.601563,5.855469 c 1.429687,1.363281 3.320312,2.222657 5.421875,2.285157 v 3.785156 c -3.121094,-0.0625 -5.957031,-1.347656 -8.0625,-3.394532 z m 5.90625,2.273438 c 2.089844,-0.0625 3.996094,-0.921875 5.425781,-2.285157 l 2.636719,2.675782 c -2.101563,2.042968 -4.9375,3.332031 -8.0625,3.394531 z m 5.773437,-2.640625 c 1.34375,-1.449219 2.191407,-3.367188 2.253907,-5.5 h 3.730468 c -0.0625,3.167968 -1.332031,6.042968 -3.347656,8.175781 z m 2.253907,-5.992188 c -0.0625,-2.121094 -0.910157,-4.050781 -2.253907,-5.503906 l 2.636719,-2.675781 c 2.015625,2.132812 3.285156,5.011719 3.347656,8.179687 z M 37.65625,11.710938 C 35.46875,9.578125 32.507812,8.242188 29.246094,8.179688 V 4.820312 c 4.167968,0.0625 7.953125,1.78125 10.738281,4.519532 z M 28.75,8.164062 c -3.257812,0.0625 -6.21875,1.402344 -8.410156,3.535157 L 18.011719,9.339844 C 20.800781,6.601562 24.582031,4.882812 28.75,4.820312 Z m -8.757812,3.902344 c -2.101563,2.21875 -3.421876,5.222656 -3.484376,8.53125 h -3.296874 c 0.0625,-4.230468 1.753906,-8.066406 4.453124,-10.894531 z m -3.484376,9.035156 c 0.0625,3.304688 1.382813,6.308594 3.484376,8.53125 l -2.328126,2.359376 C 14.964844,29.167969 13.273438,25.328125 13.210938,21.101562 Z m 3.832032,8.886719 c 2.191406,2.132813 5.152344,3.46875 8.410156,3.53125 v 3.34375 c -4.167969,-0.0625 -7.949219,-1.777343 -10.738281,-4.515625 z m 8.90625,3.542969 C 32.507812,33.46875 35.46875,32.132812 37.65625,30 l 2.328125,2.359375 c -2.785156,2.738281 -6.570313,4.457031 -10.738281,4.519531 z m 8.773437,-3.898438 C 40.121094,27.410156 41.441406,24.40625 41.5,21.101562 h 3.296875 c -0.05859,4.226563 -1.753906,8.066407 -4.453125,10.890626 z M 41.5,20.597656 c -0.05859,-3.308594 -1.378906,-6.3125 -3.480469,-8.53125 L 40.34375,9.703125 c 2.699219,2.828125 4.394531,6.664063 4.453125,10.894531 z M 40.34375,8.984375 C 37.457031,6.144531 33.566406,4.378906 29.246094,4.316406 V 0.53125 c 5.339844,0.0625 10.179687,2.257812 13.734375,5.777344 z M 28.75,4.316406 c -4.304688,0.0625 -8.210938,1.828125 -11.097656,4.667969 l -2.625,-2.675781 C 18.585938,2.789062 23.425781,0.59375 28.761719,0.53125 V 4.316406 Z M 17.304688,9.339844 c -2.800782,2.925781 -4.542969,6.878906 -4.605469,11.257812 H 8.96875 c 0.0625,-5.414062 2.226562,-10.324218 5.699219,-13.933594 z m -4.589844,11.761718 c 0.0625,4.367188 1.800781,8.328126 4.601562,11.257813 l -2.648437,2.664063 c -3.472657,-3.597657 -5.625,-8.507813 -5.6875,-13.921876 z m 4.949218,11.609376 c 2.886719,2.839843 6.78125,4.609374 11.097657,4.671874 v 3.785157 c -5.335938,-0.0625 -10.175781,-2.257813 -13.734375,-5.78125 z m 11.582032,4.671874 c 4.304687,-0.0625 8.210937,-1.832031 11.097656,-4.671874 l 2.636719,2.675781 c -3.554688,3.523437 -8.394531,5.71875 -13.734375,5.78125 z m 11.445312,-5.035156 c 2.800782,-2.929687 4.542969,-6.878906 4.605469,-11.257812 h 3.730469 c -0.0625,5.414062 -2.226563,10.324218 -5.695313,13.933594 z m 4.605469,-11.75 c -0.0625,-4.367187 -1.804687,-8.332031 -4.605469,-11.257812 l 2.640625,-2.675782 c 3.46875,3.609376 5.632813,8.519532 5.695313,13.933594 z m 0,0"
         id="path17353" />
      <path
         style="fill:#ffffff;fill-opacity:1;fill-rule:nonzero;stroke:none"
         d="m 30.179688,16.027344 -0.125,0.01172 v 0.152344 l 0.125,-0.01172 z m 0,0"
         id="path17355" />
      <path
         style="fill:#ffffff;fill-opacity:1;fill-rule:nonzero;stroke:none"
         d="m 29.871094,15.824219 h 0.160156 v 0.128906 h -0.160156 z m 0,0"
         id="path17357" />
      <path
         style="fill:#ffffff;fill-opacity:1;fill-rule:nonzero;stroke:none"
         d="m 29.570312,15.789062 0.148438,0.02344 0.01563,-0.125 -0.152344,-0.02734 z m 0,0"
         id="path17359" />
      <path
         style="fill:#ffffff;fill-opacity:1;fill-rule:nonzero;stroke:none"
         d="m 29.445312,15.738281 -0.136718,-0.01172 0.01172,-0.128906 0.152344,0.01563 z m 0,0"
         id="path17361" />
      <path
         style="fill:#ffffff;fill-opacity:1;fill-rule:nonzero;stroke:none"
         d="m 28.253906,15.574219 h 0.160156 v 0.125 h -0.160156 z m 0,0"
         id="path17363" />
      <path
         style="fill:#ffffff;fill-opacity:1;fill-rule:nonzero;stroke:none"
         d="m 27.890625,15.824219 0.148437,0.02734 0.01563,-0.125 -0.136719,-0.02734 z m 0,0"
         id="path17365" />
      <path
         style="fill:#ffffff;fill-opacity:1;fill-rule:nonzero;stroke:none"
         d="m 27.917969,16.027344 -0.175781,-0.05078 0.03906,-0.125 0.160156,0.05078 z m 0,0"
         id="path17367" />
      <path
         style="fill:#ffffff;fill-opacity:1;fill-rule:nonzero;stroke:none"
         d="m 27.617188,16.179688 -0.02344,-0.125 0.125,-0.02734 0.02344,0.125 z m 0,0"
         id="path17369" />
      <path
         style="fill:#ffffff;fill-opacity:1;fill-rule:nonzero;stroke:none"
         d="m 11.382812,29.242188 v 0.277343 h 0.125 l -0.02734,-0.316406 -0.160157,-0.0625 V 29.027344 H 11.21875 v 0.214844 z m 0,0"
         id="path17371" />
      <path
         style="fill:#ffffff;fill-opacity:1;fill-rule:nonzero;stroke:none"
         d="m 12.253906,30.011719 0.308594,0.152343 0.101562,0.289063 0.148438,0.113281 0.136719,0.316406 -0.07422,0.152344 -0.234375,-0.214844 -0.164063,-0.242187 -0.08594,-0.1875 z m 0,0"
         id="path17373" />
      <path
         style="fill:#ffffff;fill-opacity:1;fill-rule:nonzero;stroke:none"
         d="m 17.476562,36.5625 0.113282,0.277344 -0.148438,0.08984 -0.08594,-0.128907 -0.199219,-0.0625 -0.02734,-0.1875 -0.160156,-0.253906 0.25,0.03906 z m 0,0"
         id="path17375" />
      <path
         style="fill:#ffffff;fill-opacity:1;fill-rule:nonzero;stroke:none"
         d="m 28.363281,17.402344 h -0.222656 l -0.03906,-0.464844 0.125,-0.08984 v -0.238281 h -0.722656 l -0.02344,-0.242187 0.101562,-0.0625 -0.164062,-0.0625 -0.125,0.164062 -0.03516,0.191406 -0.210937,0.03516 v 0.101563 h -0.152344 v 0.277344 l -0.582031,0.492187 -1.15625,-0.03906 c -0.08984,0.191406 -0.289062,-0.02344 -0.289062,-0.02344 -0.03516,-0.125 -0.335938,0 -0.335938,0 0,0.238282 -0.398438,-0.101562 -0.398438,-0.101562 l -0.71875,-0.53125 c -0.410156,-0.375 -1.035156,0.101562 -1.058593,0.214844 0.02344,0.304687 -0.472657,0.06641 -0.472657,0.06641 0,0 -0.410156,-0.128906 -0.472656,0.03516 -0.0625,0.164062 -0.335937,0.128906 -0.335937,0.128906 l -0.03906,0.08594 -0.210937,0.03906 -0.03516,0.125 -0.25,0.03906 0.621094,-0.02734 c 0.164063,-0.02344 -0.0625,0.367187 -0.160156,0.34375 l -0.285156,0.02344 -0.101563,0.101563 h -0.273437 l -0.125,0.175781 -0.398438,-0.02344 c 0,0 -0.222656,0.1875 -0.210937,0.25 0.02344,0.0625 -0.03516,0.253906 -0.09766,0.253906 -0.0625,0 -0.1875,0.1875 -0.152343,0.253906 0.03906,0.0625 -0.121094,0.277344 -0.121094,0.277344 l -0.03906,0.214844 -0.125,0.03516 v 0.582031 l -0.25,0.175782 v 0.253906 l -0.371093,0.402344 0.03516,0.339843 -0.308594,0.34375 0.03516,0.339844 -0.183594,0.0625 -0.03906,0.152344 -0.08594,0.441406 0.210937,0.02344 c 0.09766,-0.03516 0.08594,0.277344 0,0.316407 -0.08594,0.03906 -0.3125,0.125 -0.1875,0.214843 0.125,0.08984 -0.335937,0.0625 -0.335937,-0.0625 0,-0.125 -0.25,-0.242187 -0.3125,-0.191406 -0.05859,0.03906 -0.160156,-0.1875 -0.160156,-0.1875 -0.222657,-0.238281 -0.933594,0.02344 -0.933594,0.02344 l -0.09766,0.34375 c -0.226563,0.03516 -0.375,0.425781 -0.375,0.425781 -0.1875,0.06641 -0.335938,0.304687 -0.273438,0.367187 0.0625,0.0625 -0.09766,0.08984 -0.09766,0.08984 V 24.34375 L 15.238281,24.496094 15.265625,25 c 0.121094,0 0.09766,0.242188 0.09766,0.242188 -0.210937,0.02344 -0.160156,0.300781 -0.160156,0.300781 l -0.4375,0.152343 -0.08594,0.125 -0.535157,-0.02344 -0.148437,0.152344 -0.152344,-0.152344 H 12.8125 l -0.03516,-0.101563 -0.214844,-0.03906 -0.02344,-0.238281 -0.3125,0.02344 -0.0625,0.128906 -0.335937,0.02344 c 0.02734,0.214844 -0.332031,0.53125 -0.371094,0.441406 -0.03906,-0.08594 -0.273437,-0.3125 -0.160156,-0.363281 0.09766,-0.03906 0.371094,-0.08984 0.371094,-0.08984 v -0.152343 l -0.769531,-0.02344 -0.08984,0.125 L 10.5,25.558594 v 0.339844 l -0.152344,0.03516 C 10.25,26 10.375,26.238281 10.375,26.238281 c 0.148438,0.152344 -0.02734,0.378907 -0.02734,0.378907 -0.121094,0.125 0.101563,0.367187 0.101563,0.367187 0.160156,0.03516 -0.101563,0.164063 -0.101563,0.164063 0.03906,0.214843 0.164063,0.277343 0.164063,0.277343 -0.125,0.214844 0.08594,0.3125 0.08594,0.3125 l 0.02734,0.367188 0.148438,0.08984 v 0.238282 l 0.08594,0.152344 h 0.335937 l -0.02344,-0.53125 c -0.289063,-0.339844 0.246094,-0.429688 0.273437,-0.300782 0.02344,0.125 0.246094,0.1875 0.246094,0.1875 0.03906,0.316406 0.398438,0.503906 0.5,0.191406 0.09766,-0.316406 0.1875,-0.128906 0.25,0.02344 0.05859,0.152344 0.457032,0.519531 0.457032,0.519531 h 0.3125 L 13.25,28.976562 c 0.347656,-0.02344 0.457031,0.02734 0.59375,0.503907 0.152344,0.492187 0.535156,0.621093 0.535156,0.621093 l 0.289063,-0.02734 c 0,-0.25 0.285156,0.03906 0.285156,0.175781 0,0.128906 0.558594,0.621094 0.558594,0.621094 l 0.5625,0.125 0.519531,0.429687 0.398438,-0.03906 h 0.164062 c 0.09766,-0.363281 0.597656,0.02734 0.644531,0.152343 0.03906,0.125 0.375,0.339844 0.410157,0.238282 0.03906,-0.09766 0.273437,-0.03516 0.3125,0.277344 0.03906,0.316406 0.1875,0.253906 0.1875,0.253906 l 1.179687,-0.02344 0.410156,-0.367187 1.058594,-0.02734 c 0.535156,-0.02344 0.210937,-0.769531 0.101563,-0.769531 -0.1875,-0.148438 0.0625,-0.769532 0.0625,-0.769532 l -1.507813,-1.425781 c -0.347656,0 -0.03516,-0.515625 -0.03516,-0.515625 0.273437,-0.179687 -0.0625,-0.441406 -0.0625,-0.441406 0.03516,-0.253906 -0.152344,-0.558594 -0.152344,-0.558594 -0.371094,-0.25 -0.273437,-0.742187 -0.273437,-0.742187 v -0.339844 c -0.308594,-0.304687 0.125,-0.34375 0.125,-0.34375 0.148437,-0.25 -0.09766,-0.441406 -0.09766,-0.441406 l -0.02734,-0.277344 -0.335938,-0.03516 -0.03516,-1 L 18.375,23.144531 c -0.148438,-0.03516 -0.03906,-0.300781 -0.03906,-0.300781 0.1875,-0.101562 -0.03516,-0.367188 -0.03516,-0.367188 l -0.02734,-0.464843 0.4375,-0.03906 0.09766,-0.164062 h 0.210937 l -0.02344,-0.554688 C 19.09375,20.976562 19.34375,21.125 19.34375,21.125 l 0.285156,0.02734 0.164063,-0.316406 0.03516,-0.25 -0.222656,-0.02734 c -0.25,-0.152344 -0.125,-0.707032 -0.125,-0.707032 0.398437,-0.59375 0.847656,-0.25 0.847656,-0.25 l 0.285156,-0.02734 c 0.4375,0.304687 0.03906,0.847656 0.03906,0.847656 -0.08984,0.125 -0.03906,0.527344 -0.03906,0.527344 l 0.101563,0.683593 -0.277344,0.238282 c -0.222656,0.125 -0.222656,0.429687 0.02734,0.492187 0.160156,0.02734 0.09766,0.429688 -0.148438,0.152344 -0.375,0 0.210938,0.339844 0.03516,0.25 0.375,0.191406 0.285157,-0.164063 0.285157,-0.164063 l 0.5,-0.402343 c 0.1875,-0.152344 0.523437,0.316406 0.523437,0.378906 0,0.0625 0.820313,0.02344 0.820313,0.02344 0.222656,0.152344 0.308593,0.53125 0.308593,0.53125 C 23.015625,22.832031 23.5,23.109375 23.140625,23.285156 23.476562,23.5 23.476562,23.6875 23.476562,23.6875 23.75,23.601562 23.75,23.816406 23.75,23.878906 c 0,0.0625 0.08594,-0.316406 0.08594,-0.316406 -0.3125,-0.238281 0.410156,-0.316406 0.210937,0.101562 l -0.125,0.1875 0.210937,0.164063 0.02734,0.492187 c 0.460938,-0.03516 0.335938,-0.617187 0.335938,-0.617187 l 0.210937,-0.03906 c 0,-0.1875 0.148438,-0.08594 0.148438,-0.08594 -0.148438,-0.71875 0.335937,-0.847656 0.335937,-0.847656 0.273438,-0.0625 0.285156,-0.644531 0.285156,-0.644531 -0.183593,-0.08594 -0.08594,-0.375 0.125,-0.125 0.210938,0.253906 -0.125,-0.515626 -0.125,-0.515626 l -0.160156,-0.152343 -0.222656,-0.02734 -0.02734,-0.238281 h -0.371094 l -0.0625,0.304687 -0.136718,0.0625 -0.03906,-0.08984 -0.0625,0.242187 h -0.371093 l -0.02734,-0.253906 0.226562,-0.0625 0.08594,-0.128907 0.0625,-0.339843 h 0.273437 l 0.347657,-0.101563 c 0.02344,-0.363281 0.210937,-0.277344 0.210937,-0.277344 l 0.3125,0.253907 0.02344,0.125 -0.125,0.0625 -0.02344,0.179687 0.0625,0.238282 h 0.160156 c 0.0625,-0.339844 0.5,-0.339844 0.625,-0.125 L 26.359375,21 c -0.285156,-0.152344 0,-0.378906 0.07813,-0.277344 0.08594,0.101563 0.273438,-0.277344 0.273438,-0.277344 0,0 0.148437,0.1875 0,-0.0625 -0.152344,-0.253906 0.09766,-0.378906 0.09766,-0.378906 C 26.773443,19.75 27.08204,19.789062 27.08204,19.789062 l 0.02734,-0.339843 -0.289063,-0.02734 c -0.0625,0.304687 -0.308593,0.03906 -0.183593,-0.02344 0.121093,-0.0625 0.246093,-0.191407 0.246093,-0.191407 v -0.214843 l 0.125,-0.03516 0.02344,-0.214843 h 0.3125 l 0.273438,-0.128907 0.0625,-0.09766 0.285156,-0.02734 0.410156,-0.378906 -0.03516,-0.164063 c -0.25,0 0,-0.1875 0,-0.1875 z m 0,0"
         id="path17377" />
      <path
         style="fill:#ffffff;fill-opacity:1;fill-rule:nonzero;stroke:none"
         d="m 20.027344,21.617188 -0.371094,-0.03516 0.02344,0.152344 h 0.101562 c 0.160156,0.300781 0.02344,1.019531 0.02344,1.019531 0,0 -0.25,0.02734 -0.285157,-0.101562 -0.03906,-0.125 -0.148437,0.277344 -0.0625,0.34375 0.08594,0.0625 0.371094,0 0.398438,0.238281 0.02344,0.238281 0.1875,-0.152344 0.1875,-0.152344 z m 0,0"
         id="path17379" />
      <path
         style="fill:#ffffff;fill-opacity:1;fill-rule:nonzero;stroke:none"
         d="m 19.65625,23.347656 v 0.503906 l 0.324219,0.457032 0.121093,-0.304688 0.05078,-0.1875 -0.148438,-0.06641 0.02344,-0.3125 0.125,-0.02734 0.01172,-0.152344 -0.308593,0.214844 z m 0,0"
         id="path17381" />
      <path
         style="fill:#ffffff;fill-opacity:1;fill-rule:nonzero;stroke:none"
         d="m 20.191406,24.773438 v -0.214844 l -0.148437,0.02734 -0.01563,0.164062 z m 0,0"
         id="path17383" />
      <path
         style="fill:#ffffff;fill-opacity:1;fill-rule:nonzero;stroke:none"
         d="m 20.003906,25.796875 v -0.152344 l -0.175781,0.02734 v 0.148437 z m 0,0"
         id="path17385" />
      <path
         style="fill:#ffffff;fill-opacity:1;fill-rule:nonzero;stroke:none"
         d="m 20.253906,25.140625 c 0.04687,0 0.08594,-0.03906 0.08594,-0.08984 0,-0.05078 -0.03906,-0.08594 -0.08594,-0.08594 -0.05078,0 -0.08984,0.03516 -0.08984,0.08594 0,0.05078 0.03906,0.08984 0.08984,0.08984 z m 0,0"
         id="path17387" />
      <path
         style="fill:#ffffff;fill-opacity:1;fill-rule:nonzero;stroke:none"
         d="m 20.476562,25.492188 c 0,-0.04688 -0.03906,-0.08594 -0.08594,-0.08594 -0.05078,0 -0.08984,0.03906 -0.08984,0.08594 0,0.05078 0.03906,0.08984 0.08984,0.08984 0.04687,0 0.08594,-0.03906 0.08594,-0.08984 z m 0,0"
         id="path17389" />
      <path
         style="fill:#ffffff;fill-opacity:1;fill-rule:nonzero;stroke:none"
         d="m 20.488281,23.058594 c 0,-0.05078 -0.03906,-0.08984 -0.08594,-0.08984 -0.04687,0 -0.08594,0.03906 -0.08594,0.08984 0,0.04687 0.03906,0.08594 0.08594,0.08594 0.04687,0 0.08594,-0.03906 0.08594,-0.08594 z m 0,0"
         id="path17391" />
      <path
         style="fill:#ffffff;fill-opacity:1;fill-rule:nonzero;stroke:none"
         d="m 27.03125,20.167969 h 0.125 l 0.02734,0.136719 -0.08984,0.07812 -0.03516,0.113282 -0.164063,0.03906 -0.371093,0.363282 -0.02734,0.164062 -0.09766,0.152344 -0.125,0.316406 -0.433594,0.02344 -0.08984,0.378906 0.0625,0.328125 0.375,0.152343 0.03516,-0.214843 0.125,-0.0625 0.02734,-0.214844 0.08594,-0.152344 0.125,-0.152343 0.03516,-0.164063 0.210937,-0.125 0.25,-0.05078 0.101563,-0.125 0.03516,-0.253906 0.02734,-0.1875 0.08594,-0.140626 0.25,-0.101562 v -0.402344 h -0.125 l -0.02734,-0.152344 -0.222657,-0.02344 -0.05078,0.113281 h -0.09766 z m 0,0"
         id="path17393" />
      <path
         style="fill:#ffffff;fill-opacity:1;fill-rule:nonzero;stroke:none"
         d="M 28.003906,21.367188 V 21.0625 l -0.03906,-0.277344 -0.308594,-0.152344 -0.226562,0.214844 -0.03516,0.304688 v 0.1875 l -0.210937,0.03906 -0.03906,0.582032 -0.160156,0.0625 0.02344,0.214843 -0.222656,0.0625 -0.226562,0.0625 -0.03516,0.277344 -0.164063,0.101563 -0.08594,0.253906 -0.09766,0.617187 c 0,0 0.183594,0.367188 0.285157,0.1875 0.09766,-0.164062 0.273437,-0.1875 0.273437,-0.1875 l 0.0625,-0.152343 0.558594,0.02734 c 0.03906,-0.242187 0.3125,-0.152343 0.3125,-0.03906 0,0.101562 0.210937,0.02344 0.210937,0.02344 l 0.148438,-0.238281 h 0.226562 l 0.02344,-0.253906 0.09766,-0.0625 v -0.378907 c 0.335938,-0.101562 0.289062,-0.429687 0.289062,-0.429687 l 0.08594,-0.09766 -0.03906,-0.152344 c -0.160157,-0.0625 -0.08594,-0.214844 0.02734,-0.175781 0.09766,0.03516 -0.148437,-0.191406 -0.148437,-0.191406 -0.125,0.101562 -0.226563,-0.125 -0.226563,-0.125 z m 0,0"
         id="path17395" />
      <path
         style="fill:#ffffff;fill-opacity:1;fill-rule:nonzero;stroke:none"
         d="m 28.339844,23.941406 c -0.02734,0.253906 -0.335938,0.339844 -0.335938,0.339844 l -0.222656,-0.0625 -0.125,-0.101562 -0.02734,-0.300782 0.1875,-0.02734 0.03906,0.125 z m 0,0"
         id="path17397" />
      <path
         style="fill:#ffffff;fill-opacity:1;fill-rule:nonzero;stroke:none"
         d="m 29.457031,22.578125 c 0.05078,0.1875 0.03906,-0.304687 0.125,-0.277344 0.08984,0.02344 0.02734,-0.304687 0.02734,-0.304687 l -0.375,0.277344 c 0.175781,0.02734 0.199219,0.214843 0.222656,0.304687 z m 0,0"
         id="path17399" />
      <path
         style="fill:#ffffff;fill-opacity:1;fill-rule:nonzero;stroke:none"
         d="m 30.554688,21.46875 c 0.08594,0.1875 0.0625,0.464844 0.371093,0.679688 0.101563,0.07812 -0.0625,0.214843 -0.160156,0.152343 -0.101563,-0.0625 -0.398437,-0.53125 -0.398437,-0.53125 v -0.277343 c 0.0625,-0.164063 0.148437,-0.101563 0.1875,-0.02344 z m 0,0"
         id="path17401" />
      <path
         style="fill:#ffffff;fill-opacity:1;fill-rule:nonzero;stroke:none"
         d="m 30.554688,27.941406 0.0625,0.0625 0.0625,0.113282 0.136718,-0.238282 -0.113281,-0.03906 z m 0,0"
         id="path17403" />
      <path
         style="fill:#ffffff;fill-opacity:1;fill-rule:nonzero;stroke:none"
         d="m 33.03125,27.296875 0.160156,-0.113281 -0.0625,-0.101563 -0.175781,0.101563 z m 0,0"
         id="path17405" />
      <path
         style="fill:#ffffff;fill-opacity:1;fill-rule:nonzero;stroke:none"
         d="m 39.015625,31.742188 0.183594,0.08594 0.02734,0.367187 c 0.246094,0.253907 1.054688,0.03906 1.054688,-0.02344 0,-0.06641 -0.03516,-0.785156 -0.03516,-0.785156 l -0.101563,-0.101563 -0.02344,-0.527344 c 0.08594,-0.277343 -0.398438,-0.683593 -0.4375,-0.59375 C 39.648438,30.25 39.375,30.1875 39.375,30.265625 c 0,0.08594 -0.164062,0.503906 -0.08594,0.65625 0.08594,0.148437 -0.0625,0.148437 -0.08984,0.300781 -0.02344,0.128906 -0.234375,0.378906 -0.183595,0.519532 z m 0,0"
         id="path17407" />
      <path
         style="fill:#ffffff;fill-opacity:1;fill-rule:nonzero;stroke:none"
         d="m 38.554688,30.882812 c -0.03906,0.164063 -0.1875,0.253907 -0.273438,0.1875 -0.08984,-0.0625 0.09766,0.101563 0.148438,0.191407 0.03516,0.08984 0.160156,0.08984 0.210937,0 0.03906,-0.08984 0.02344,-0.277344 0.0625,-0.367188 0.03516,-0.07422 -0.125,-0.101562 -0.148437,-0.01172 z m 0,0"
         id="path17409" />
      <path
         style="fill:#ffffff;fill-opacity:1;fill-rule:nonzero;stroke:none"
         d="m 37.59375,26.984375 h 0.152344 v 0.402344 H 37.59375 Z m 0,0"
         id="path17411" />
      <path
         style="fill:#ffffff;fill-opacity:1;fill-rule:nonzero;stroke:none"
         d="m 39.734375,22.882812 c -0.08594,-0.128906 0.410156,-0.34375 0.5,-0.08984 0.08594,0.253906 0,0.214843 -0.08984,0.1875 -0.07422,-0.02344 -0.285156,0.06641 -0.410156,-0.09766 z m 0,0"
         id="path17413" />
      <path
         style="fill:#ffffff;fill-opacity:1;fill-rule:nonzero;stroke:none"
         d="m 40.183594,20.027344 -0.02344,0.128906 0.222656,0.03516 0.02344,-0.125 z m 0,0"
         id="path17415" />
      <path
         style="fill:#ffffff;fill-opacity:1;fill-rule:nonzero;stroke:none"
         d="m 39.597656,20.394531 0.01172,0.03906 0.125,-0.05078 -0.05078,-0.101562 -0.02344,-0.07422 -0.0625,0.03516 -0.148437,0.08984 -0.136719,-0.08984 -0.0625,0.113281 0.160156,0.101562 0.03906,0.02734 0.02344,-0.02734 z m 0,0"
         id="path17417" />
      <path
         style="fill:#ffffff;fill-opacity:1;fill-rule:nonzero;stroke:none"
         d="m 40.382812,15.207031 h -0.3125 c 0,0 0.101563,0.03906 -0.1875,-0.238281 -0.285156,-0.277344 -0.472656,0.0625 -0.472656,0.0625 l -0.335937,0.03906 v 0.339844 l -0.160157,0.0625 0.02344,0.214844 0.226562,-0.02734 c 0,0 0,0.253906 0.0625,0.152344 0.0625,-0.101562 0.582032,0.02734 0.535157,0.277344 -0.01563,0.101562 0.519531,0.378906 0.457031,0.71875 0.277344,0.03906 0.214844,0.316406 0.214844,0.316406 l 0.347656,0.03906 0.09766,-0.214843 0.101563,0.02344 v -0.125 l -0.226563,-0.0625 -0.03516,-0.679687 -0.148438,-0.101563 0.03516,-0.179687 -0.160157,-0.0625 0.08594,-0.277344 z m 0,0"
         id="path17419" />
      <path
         style="fill:#ffffff;fill-opacity:1;fill-rule:nonzero;stroke:none"
         d="m 41.289062,17.378906 -0.160156,-0.02734 -0.375,0.06641 -0.210937,0.402343 c 0,0 0.101562,0.0625 0.1875,0.214844 0.08594,0.152344 0.125,1.023438 -0.125,1.171875 -0.25,0.152344 0.02734,0.06641 0.02734,0.06641 l -0.03906,0.464843 c 0.0625,0.214844 0.160156,0.101563 0.222656,0 0.0625,-0.101562 0.125,-0.125 0.210938,-0.238281 0.08984,-0.101562 0.214844,-0.304688 0.226562,-0.441406 0.02344,-0.152344 0.125,-0.378906 0.0625,-0.445313 -0.0625,-0.0625 0.0625,-0.363281 0.0625,-0.363281 0,0 0.08594,-0.175781 0,-0.339844 -0.08984,-0.179687 0.02344,-0.367187 0.08594,-0.445312 z m 0,0"
         id="path17421" />
      <path
         style="fill:#ffffff;fill-opacity:1;fill-rule:nonzero;stroke:none"
         d="m 41.539062,18.25 0.01172,-0.164062 0.125,0.01172 -0.01172,0.175782 z m 0,0"
         id="path17423" />
      <path
         style="fill:#ffffff;fill-opacity:1;fill-rule:nonzero;stroke:none"
         d="m 41.527344,18.84375 -0.113282,-0.06641 0.0625,-0.125 0.113282,0.0625 z m 0,0"
         id="path17425" />
      <path
         style="fill:#ffffff;fill-opacity:1;fill-rule:nonzero;stroke:none"
         d="m 41.351562,17.152344 -0.08594,-0.191406 c 0,0 0,-0.164063 0.03906,-0.25 0.03516,-0.08984 -0.08984,-0.164063 -0.152344,-0.191407 -0.0625,-0.02344 -0.03516,-0.1875 -0.0625,-0.277343 -0.02344,-0.08984 -0.160156,-0.152344 -0.160156,-0.152344 0,0 -0.03906,-0.3125 -0.03906,-0.378906 0,-0.0625 -0.183594,-0.148438 -0.121094,-0.214844 0.05859,-0.0625 0.09766,-0.148438 0.160157,-0.1875 0.0625,-0.03906 -0.0625,-0.339844 0.03906,-0.277344 0.09766,0.0625 0.09766,0.175781 0.148438,0.253906 0.03516,0.08594 -0.02734,0.375 0.08594,0.441406 0.101563,0.0625 -0.02344,0.277344 0.148437,0.277344 0.164063,0 0.0625,0.402344 0.0625,0.402344 0,0 -0.03516,0.304688 0.0625,0.316406 0.101563,0.02344 0.03906,0.53125 0.03906,0.53125 z m 0,0"
         id="path17427" />
      <path
         style="fill:#ffffff;fill-opacity:1;fill-rule:nonzero;stroke:none"
         d="m 40.007812,13.707031 c 0.0625,0.08594 0.1875,0.148438 0.1875,0.238281 0,0.08984 -0.03516,0.152344 0.08594,0.164063 0.125,0.02734 0.214844,-0.02344 0.25,0.08984 0.03906,0.101562 0.03906,0.277343 0.02344,0.363281 -0.02344,0.08984 0.02734,0.214844 0.125,0.214844 0.101562,0 0.125,0.02734 0.125,0.08984 0,0.0625 0.125,-0.238282 0.125,-0.238282 -0.101563,-0.08984 -0.1875,-0.28125 -0.1875,-0.28125 0,0 -0.09766,-0.300781 -0.09766,-0.339844 0,-0.03516 -0.148437,-0.08594 -0.210937,-0.101562 -0.0625,-0.02344 -0.164063,-0.214844 -0.164063,-0.214844 z m 0,0"
         id="path17429" />
      <path
         style="fill:#ffffff;fill-opacity:1;fill-rule:nonzero;stroke:none"
         d="m 40.207031,13.503906 c -0.0625,-0.08984 -0.125,-0.152344 -0.210937,-0.1875 -0.08594,-0.03906 -0.148438,-0.08984 -0.222656,-0.08984 -0.08984,0 -0.164063,-0.08984 -0.125,-0.191406 0.03516,-0.09766 -0.0625,-0.148437 -0.0625,-0.238281 0,-0.08984 0.0625,-0.08984 0.160156,-0.02344 0.101562,0.0625 0.08984,0.08594 0.164062,0.1875 0.08594,0.101562 0.125,0.214843 0.210938,0.1875 0.08594,-0.02344 0.148437,0.191406 0.222656,0.128906 0.08984,-0.0625 0.0625,0.152344 0.0625,0.152344 z m 0,0"
         id="path17431" />
      <path
         style="fill:#ffffff;fill-opacity:1;fill-rule:nonzero;stroke:none"
         d="m 37.792969,15.914062 c 0.113281,0.113282 -0.621094,0.08984 -0.621094,0 0,-0.08984 0.0625,-0.378906 0.25,-0.316406 0.1875,0.0625 0.210937,-0.378906 0.210937,-0.378906 0,0 -0.160156,0.02734 -0.02344,-0.0625 0.148437,-0.08594 0,-0.214844 -0.0625,-0.277344 -0.0625,-0.0625 -0.125,-0.175781 -0.125,-0.175781 h 0.285156 c 0.125,-0.08984 0.160157,-0.492187 0.160157,-0.492187 0.25,0.08984 0.375,-0.08984 0.375,-0.08984 0,0 0.03906,0.128906 0.125,0.242187 0.08594,0.101563 -0.210938,0.148438 -0.101563,0.214844 0.101563,0.0625 0.152344,0.25 0.101563,0.3125 -0.03906,0.06641 -0.273438,0.02734 -0.273438,-0.0625 0,-0.08594 -0.08594,0.101563 0,0.214844 0.08594,0.101562 -0.101562,0.253906 -0.148438,0.253906 -0.03906,0 -0.3125,0.03516 -0.08984,0.175781 0.226562,0.125 0.472656,0.0625 0.472656,0.0625 0,0 0.1875,-0.02344 0.25,0.08984 0.0625,0.101562 -0.02344,0.125 -0.125,0.125 -0.09766,0 -0.597656,-0.03906 -0.597656,-0.03906 0,0 -0.125,0.140624 -0.0625,0.203124 z m 0,0"
         id="path17433" />
      <path
         style="fill:#ffffff;fill-opacity:1;fill-rule:nonzero;stroke:none"
         d="m 36.464844,16.105469 c 0.09766,-0.02734 0.347656,-0.03906 0.398437,0.02344 0.03516,0.0625 -0.152343,0.152344 -0.152343,0.152344 l -0.246094,0.03516 c -0.07813,-0.09766 -0.101563,-0.1875 0,-0.210937 z m 0,0"
         id="path17435" />
      <path
         style="fill:#ffffff;fill-opacity:1;fill-rule:nonzero;stroke:none"
         d="m 39.136719,14.324219 c 0.164062,-0.08984 0.523437,-0.08984 0.5,-0.214844 -0.02734,-0.125 0.210937,-0.164063 0.210937,-0.164063 l 0.0625,0.253907 0.1875,0.125 0.02344,0.238281 c 0,0 0.0625,-0.03516 -0.160156,0.02734 -0.226563,0.0625 -0.08984,0.164062 -0.08984,0.164062 L 39.375,14.777344 39.3125,14.5625 Z m 0,0"
         id="path17437" />
      <path
         style="fill:#ffffff;fill-opacity:1;fill-rule:nonzero;stroke:none"
         d="m 38.328125,13.164062 c 0.125,0 -0.03516,0.492188 0.289063,0.441407 0.335937,-0.03906 0.02344,0.152343 0.273437,0.164062 0.246094,0.02344 0.183594,-0.191406 0.273437,-0.339843 C 39.25,13.277344 39.199219,13.1875 39.0625,13.148438 38.914062,13.113281 38.914062,13.113281 38.875,12.9375 38.839844,12.773438 38.664062,12.722656 38.664062,12.722656 L 38.601562,12.46875 38.328125,12.632812 38.054688,13 c 0,0.300781 0.148437,0.164062 0.273437,0.164062 z m 0,0"
         id="path17439" />
      <path
         style="fill:#ffffff;fill-opacity:1;fill-rule:nonzero;stroke:none"
         d="m 38.875,14.96875 0.0625,-0.128906 0.113281,0.05078 -0.0625,0.140625 z m 0,0"
         id="path17441" />
      <path
         style="fill:#ffffff;fill-opacity:1;fill-rule:nonzero;stroke:none"
         d="m 38.664062,14.765625 h 0.125 v 0.152344 h -0.125 z m 0,0"
         id="path17443" />
      <path
         style="fill:#ffffff;fill-opacity:1;fill-rule:nonzero;stroke:none"
         d="m 38.765625,11.925781 0.02344,0.191407 -0.125,0.01172 -0.02344,-0.191406 z m 0,0"
         id="path17445" />
      <path
         style="fill:#ffffff;fill-opacity:1;fill-rule:nonzero;stroke:none"
         d="m 38.417969,13.90625 h 0.121093 v 0.101562 h -0.121093 z m 0,0"
         id="path17447" />
      <path
         style="fill:#ffffff;fill-opacity:1;fill-rule:nonzero;stroke:none"
         d="m 38.082031,13.90625 -0.01563,-0.125 0.214844,-0.01172 0.01172,0.125 z m 0,0"
         id="path17449" />
      <path
         style="fill:#ffffff;fill-opacity:1;fill-rule:nonzero;stroke:none"
         d="m 36.375,15.964844 -0.109375,-0.05078 0.0625,-0.152343 0.109375,0.05078 z m 0,0"
         id="path17451" />
      <path
         style="fill:#ffffff;fill-opacity:1;fill-rule:nonzero;stroke:none"
         d="m 35.730469,15.574219 -0.01172,-0.125 0.210938,-0.02734 0.01172,0.125 z m 0,0"
         id="path17453" />
      <path
         style="fill:#ffffff;fill-opacity:1;fill-rule:nonzero;stroke:none"
         d="m 32.144531,15.535156 -0.457031,0.01172 0.01172,0.128906 0.445312,-0.01563 z m 0,0"
         id="path17455" />
      <path
         style="fill:#ffffff;fill-opacity:1;fill-rule:nonzero;stroke:none"
         d="m 31.386719,15.710938 -0.05078,-0.1875 0.125,-0.02734 L 31.5,15.6875 Z m 0,0"
         id="path17457" />
      <path
         style="fill:#ffffff;fill-opacity:1;fill-rule:nonzero;stroke:none"
         d="m 31.300781,15.851562 -0.03906,-0.125 0.0625,-0.01562 0.03906,0.113281 z m 0,0"
         id="path17459" />
      <path
         style="fill:#ffffff;fill-opacity:1;fill-rule:nonzero;stroke:none"
         d="m 32.332031,15.484375 -0.02344,0.152344 0.222656,0.02344 c 0,0 0.101562,0.08984 0.101562,0.152344 0,0.0625 0.148438,0.128906 0.222657,0.128906 0.08594,0 0.3125,-0.179687 0.3125,-0.179687 0,0 0.09766,-0.300781 0.02344,-0.277344 -0.08594,0.02734 -0.25,0.152344 -0.273437,0.02734 -0.02344,-0.128907 -0.273438,-0.0625 -0.273438,-0.0625 z m 0,0"
         id="path17461" />
      <path
         style="fill:#ffffff;fill-opacity:1;fill-rule:nonzero;stroke:none"
         d="m 33.367188,15.257812 c 0,0.0625 -0.03906,0.152344 0.08594,0.175782 0.125,0.02734 0.347656,-0.08594 0.371094,0.03906 0.02734,0.125 0.02734,0.214844 0.1875,0.277344 0.164062,0.0625 0.273437,0.08984 0.398437,0.08984 0.125,0 0.398438,-0.03906 0.398438,-0.03906 0,0 0.296875,0.05078 0.347656,0.101563 0.226562,0.238281 0.375,0.300781 0.4375,0.1875 0.0625,-0.101563 -0.02734,-0.339844 -0.03906,-0.429688 -0.02344,-0.08594 -0.3125,-0.492187 -0.410157,-0.402344 -0.09766,0.08984 -0.125,0 -0.3125,0.0625 -0.183593,0.0625 -0.582031,0.02734 -0.597656,-0.0625 -0.02344,-0.08984 -0.308594,-0.125 -0.308594,-0.214843 0,-0.08594 -0.210937,-0.1875 -0.1875,-0.0625 0.02344,0.125 -0.148437,0.1875 -0.1875,0.152343 -0.0625,-0.05078 -0.183593,0.125 -0.183593,0.125 z m 0,0"
         id="path17463" />
      <path
         style="fill:#ffffff;fill-opacity:1;fill-rule:nonzero;stroke:none"
         d="m 38.117188,12.53125 0.148437,-0.464844 c -0.210937,-0.03906 -0.160156,-0.277344 -0.160156,-0.277344 -0.02344,-0.191406 -0.3125,-0.40625 -0.410157,-0.34375 -0.101562,0.0625 -0.0625,-0.441406 -0.0625,-0.441406 0,0 0.1875,-0.125 0.273438,-0.0625 0.08594,0.0625 -0.707031,-1.058594 -0.871094,-0.957031 C 36.875,10.082031 36.5,9.882812 36.511719,9.679688 c 0.02734,-0.1875 -0.746094,-0.832032 -0.746094,-0.832032 0,0 -0.246094,-0.164062 -0.285156,-0.039062 -0.03906,0.125 -0.125,0.214844 0,0.277344 0.125,0.0625 0.09766,-0.101563 0.25,0.039062 0.148437,0.152344 0.410156,0.339844 0.308593,0.464844 -0.09766,0.128906 -0.222656,0.179687 -0.222656,0.179687 l 0.148438,0.175781 h 0.226562 l 0.03516,0.367188 c 0,0 0.25,0.125 0.3125,0.277344 0.0625,0.148437 0.0625,0.238281 0,0.3125 -0.0625,0.08984 -0.1875,0.242187 -0.164062,0.378906 0.02734,0.152344 0.1875,0.214844 0.1875,0.214844 l 0.160156,0.02734 0.125,0.0625 v 0.277343 c 0.164063,-0.03906 0.4375,0.1875 0.410156,0.339844 -0.02344,0.152344 0.03906,0.0625 0.25,0.214844 0.210938,0.152343 0.148438,0.175781 0.285157,0.277343 0.136719,0.08984 0.261719,0.02734 0.324219,-0.164062 z m 0,0"
         id="path17465" />
      <path
         style="fill:#ffffff;fill-opacity:1;fill-rule:nonzero;stroke:none"
         d="m 34.710938,9.628906 c -0.02734,-0.089844 -0.0625,-0.378906 0.05859,-0.367187 0.125,0.027343 0.03906,0 0.1875,0.066406 0.148438,0.0625 0.164063,-0.101563 0.164063,-0.101563 h 0.222656 l 0.285156,0.238282 -0.03516,0.191406 -0.210938,0.023438 c -0.101562,-0.164063 -0.3125,-0.101563 -0.277343,0.039062 0.03906,0.148438 -0.09766,0.429688 -0.183594,0.441406 -0.08984,0.02344 -0.351563,0.02344 -0.335937,-0.101562 0.03516,-0.125 0.125,-0.429688 0.125,-0.429688 z m 0,0"
         id="path17467" />
      <path
         style="fill:#ffffff;fill-opacity:1;fill-rule:nonzero;stroke:none"
         d="M 34.546875,9.0625 V 8.898438 c 0,0 -0.02344,-0.164063 -0.125,-0.164063 -0.09766,0 -0.285156,-0.128906 -0.246094,-0.214844 0.03516,-0.089843 -0.351562,-0.175781 -0.351562,-0.175781 0,0 -0.347657,-0.34375 -0.222657,-0.304688 0.125,0.039063 0.0625,-0.152343 0.0625,-0.152343 0,0 -0.25,0.039062 -0.3125,0.027343 -0.0625,-0.027343 -0.03516,-0.214843 -0.03516,-0.214843 0,0 -0.25,-0.0625 -0.25,0 0,0.0625 0.08594,0.0625 0.125,0.1875 0.03906,0.128906 0.02344,0.339843 0.210938,0.378906 0.1875,0.039063 0.222656,0.089844 0.25,0.175781 0.02344,0.089844 0.25,0.101563 0.25,0.101563 l 0.16016,0.089843 z m 0,0"
         id="path17469" />
      <path
         style="fill:#ffffff;fill-opacity:1;fill-rule:nonzero;stroke:none"
         d="m 32.308594,6.890625 -0.0625,-0.175781 -0.160156,-0.039063 v 0.1875 z m 0,0"
         id="path17471" />
      <path
         style="fill:#ffffff;fill-opacity:1;fill-rule:nonzero;stroke:none"
         d="m 32.246094,5.996094 c -0.210938,-0.164063 0.285156,0.125 0.285156,0.125 0.164062,0 0.273438,0.125 0.273438,0.1875 0,0.0625 0.226562,0.039062 0.226562,0.039062 L 33.054688,6.195312 32.894531,5.980469 32.742188,5.878906 c 0,0 -0.222657,-0.023437 -0.222657,-0.085937 0,-0.050781 -0.1875,0.265625 -0.273437,0.203125 z m 0,0"
         id="path17473" />
      <path
         style="fill:#ffffff;fill-opacity:1;fill-rule:nonzero;stroke:none"
         d="m 36.050781,6.121094 c -0.05859,0.1875 -0.08594,0.441406 -0.183593,0.441406 -0.101563,0 -0.0625,0.277344 -0.0625,0.277344 0,0 0.273437,0 0.347656,0.023437 0.08594,0.027344 0.08594,0.242188 0.08594,0.242188 0.3125,-0.027344 0.4375,0.402343 0.398438,0.515625 -0.03516,0.101562 0.125,0.101562 0.125,0.101562 0,0 0,0.339844 -0.03906,0.429688 C 36.6875,8.242188 37,8.304688 37.074219,8.429688 c 0.08594,0.125 -0.03906,0.554687 -0.101563,0.582031 -0.0625,0.023437 0.164063,0.085937 0.148438,0.1875 -0.02344,0.101562 0.0625,0 0.08984,0.175781 0.02344,0.164062 0.0625,0.53125 0.0625,0.53125 l 0.285156,0.027344 c 0.03516,-0.277344 0.570312,-0.292969 0.660156,-0.253906 0.347656,0.125 0.621094,0.679687 0.621094,0.808593 0,0.125 -0.222656,0.152344 -0.222656,0.152344 l 0.03516,0.617187 C 39,11.359375 39.300781,11.875 39.25,11.964844 c -0.03906,0.08594 0.25,0.0625 0.25,0.0625 0.03516,-0.378906 0.398438,-0.253906 0.410156,-0.125 0.02344,0.125 0.08594,0.402344 0.08594,0.402344 l 0.101562,0.1875 0.148438,0.152343 0.222656,-0.02344 0.0625,0.125 0.273438,0.03906 c 0,0 0.222656,0.25 0.25,0.316406 0.02344,0.0625 0.335937,0.03516 0.410156,0.0625 0.08594,0.02344 0.210937,0.08594 0.222656,0.1875 0.02734,0.101563 0.148438,0.277344 0.148438,0.277344 0,0 0.25,0.0625 0.277343,0.152344 0.02344,0.08984 0.121094,0.277344 0.121094,0.277344 l 0.214844,0.175781 0.02344,0.191406 0.222656,0.02344 0.0625,0.253906 0.375,-0.02734 0.210938,-0.148437 c 0.273438,-0.152344 0.460938,-0.34375 0.472656,-0.429688 0.02344,-0.08984 0.0625,-0.40625 0.273438,-0.339844 0.210937,0.0625 0.0625,-0.46875 0.0625,-0.46875 0,0 -0.285156,-0.214843 -0.273438,-0.316406 0.02344,-0.101562 -0.285156,-0.316406 -0.273437,-0.402344 0.02344,-0.08984 -0.273438,-0.253906 -0.25,-0.339843 0.02344,-0.08984 -0.148438,-0.316407 -0.148438,-0.316407 l -0.3125,-0.304687 -0.03516,-0.1875 -0.25,-0.02734 -0.496094,-0.617187 0.02344,-0.175782 -0.148438,-0.02734 v -0.238281 l -0.152343,-0.08984 -0.222657,-0.02344 -0.460937,-0.503906 -0.03516,-0.242188 h -0.226563 l 0.03906,-0.441406 c 0.148437,-0.1875 0.0625,-0.554687 0.0625,-0.554687 0,0 -0.285157,0.152343 -0.4375,0.089843 -0.148438,-0.0625 0.0625,-0.214843 0.0625,-0.214843 V 8.191406 L 40.496094,8.0625 c 0,0 -0.351563,0.039062 -0.375,-0.023438 -0.02344,-0.0625 -0.08594,-0.339843 -0.08594,-0.339843 l -0.02734,-0.367188 -0.148437,-0.0625 -0.02344,-0.125 -0.226563,0.023438 V 6.914062 L 39.48828,6.878906 39.36328,6.816406 39.335938,6.5625 38.875,6.535156 38.726562,6.324219 38.566406,6.070312 38.042969,6.03125 l -0.125,-0.125 -0.210938,-0.039062 -0.148437,-0.0625 -0.0625,0.101562 -0.398438,0.023438 -0.02344,0.128906 c -0.175781,0.085937 -0.996094,0 -1.023438,0.0625 z m 0,0"
         id="path17475" />
      <path
         style="fill:#ffffff;fill-opacity:1;fill-rule:nonzero;stroke:none"
         d="M 38.230469,5.566406 C 38.191406,5.402344 38.640625,5.25 38.753906,5.375 38.851566,5.503906 39.152344,5.527344 39.1875,6.160156 39.19922,6.386719 38.816406,5.917969 38.816406,5.917969 l -0.3125,-0.101563 c -0.175781,-0.035156 -0.261718,-0.136718 -0.273437,-0.25 z m 0,0"
         id="path17477" />
      <path
         style="fill:#ffffff;fill-opacity:1;fill-rule:nonzero;stroke:none"
         d="m 32.160156,5.832031 -0.113281,-0.050781 0.08594,-0.203125 0.113282,0.0625 z m 0,0"
         id="path17479" />
      <path
         style="fill:#ffffff;fill-opacity:1;fill-rule:nonzero;stroke:none"
         d="M 31.089844,3.734375 30.816406,3.457031 V 3.21875 l -0.08984,-0.089844 -0.08594,-0.300781 -0.273437,-0.089844 -0.273438,0.101563 -0.285156,0.1875 -0.3125,0.039062 -0.160156,0.1875 0.65625,0.066406 0.125,0.214844 0.472656,0.035156 0.3125,0.316407 c 0.285156,0.125 0.347656,0 0.1875,-0.152344 z m 0,0"
         id="path17481" />
      <path
         style="fill:#ffffff;fill-opacity:1;fill-rule:nonzero;stroke:none"
         d="M 31.050781,2.6875 C 31,2.5 30.742188,2.925781 31.015625,3.003906 c 0.273437,0.085938 0.535156,0 0.535156,0 l 0.05859,-0.125 1.035156,0.023438 c 0.08594,-0.089844 0.125,-0.214844 0.125,-0.214844 0,0 0.246094,-0.089844 0.347657,-0.039062 0.09766,0.039062 0.02344,-0.300782 -0.08594,-0.25 -0.101562,0.035156 -0.3125,0.023437 -0.3125,0.023437 h -0.375 c -0.02344,-0.152344 -0.347656,-0.085937 -0.371094,0 C 31.960938,2.5 31.835938,2.523438 31.835938,2.523438 L 31.363281,2.5625 c -0.05078,0.125 -0.285156,0.214844 -0.3125,0.125 z m 0,0"
         id="path17483" />
      <path
         style="fill:#ffffff;fill-opacity:1;fill-rule:nonzero;stroke:none"
         d="m 29,6.285156 c 0.320312,0.101563 0.433594,0.023438 0.457031,-0.0625 0.02734,-0.089844 0.03906,-0.101562 0.164063,-0.128906 0.125,-0.023438 -0.02344,-0.277344 -0.148438,-0.25 -0.125,0.023438 -0.25,-0.039062 -0.273437,-0.152344 -0.02734,-0.101562 -0.226563,-0.378906 -0.25,-0.164062 -0.02344,0.214844 -0.148438,0.214844 -0.125,0.367187 C 28.863281,6.03125 28.925781,6.257812 29,6.285156 Z m 0,0"
         id="path17485" />
      <path
         style="fill:#ffffff;fill-opacity:1;fill-rule:nonzero;stroke:none"
         d="M 26.621094,6.523438 C 26.609375,6.449219 27.03125,6.4375 27.09375,6.5 c 0.0625,0.0625 0.02734,0.175781 0.214844,0.175781 0.183594,0 0.09766,0.125 0.08594,0.1875 -0.02734,0.066407 -0.226562,0.039063 -0.25,-0.023437 C 27.121094,6.777344 26.808594,6.75 26.808594,6.75 c 0,0 -0.160156,-0.125 -0.1875,-0.226562 z m 0,0"
         id="path17487" />
      <path
         style="fill:#ffffff;fill-opacity:1;fill-rule:nonzero;stroke:none"
         d="m 33.441406,2.222656 0.04687,0.046875 0.03906,-0.035156 L 33.738273,2.058594 33.652333,1.957031 33.48827,2.09375 33.39061,1.980469 33.30467,2.082031 Z m 0,0"
         id="path17489" />
      <path
         style="fill:#ffffff;fill-opacity:1;fill-rule:nonzero;stroke:none"
         d="m 32.519531,1.730469 0.02344,-0.027344 0.238281,-0.152344 -0.07422,-0.101562 -0.1875,0.128906 -0.136719,-0.089844 -0.0625,0.113281 0.160157,0.101563 z m 0,0"
         id="path17491" />
      <path
         style="fill:#ffffff;fill-opacity:1;fill-rule:nonzero;stroke:none"
         d="m 31.773438,6.070312 0.136718,0.214844 0.09766,-0.078125 -0.136718,-0.226562 -0.02344,-0.023438 h -0.02344 l -0.214844,-0.027343 -0.01172,0.128906 z m 0,0"
         id="path17493" />
      <path
         style="fill:#ffffff;fill-opacity:1;fill-rule:nonzero;stroke:none"
         d="m 25.003906,11.886719 0.02734,0.242187 h 0.308594 c 0.125,0 -0.09766,-0.152344 -0.09766,-0.152344 0,0 -0.25,0.02344 -0.238282,-0.08984 z m 0,0"
         id="path17495" />
      <path
         style="fill:#ffffff;fill-opacity:1;fill-rule:nonzero;stroke:none"
         d="m 25.402344,11.902344 0.07422,-0.101563 0.125,0.101563 L 25.527344,12 Z m 0,0"
         id="path17497" />
      <path
         style="fill:#ffffff;fill-opacity:1;fill-rule:nonzero;stroke:none"
         d="m 21.632812,7.914062 0.08594,-0.089843 0.125,0.125 -0.08594,0.089843 z m 0,0"
         id="path17499" />
      <path
         style="fill:#ffffff;fill-opacity:1;fill-rule:nonzero;stroke:none"
         d="m 27.46875,35.4375 0.08594,0.08984 0.164062,-0.164063 -0.07422,-0.05078 -0.214843,-0.101562 -0.04688,0.113281 0.121094,0.0625 z m 0,0"
         id="path17501" />
      <path
         style="fill:#ffffff;fill-opacity:1;fill-rule:nonzero;stroke:none"
         d="M 25.839844,33.898438 25.988281,34 l 0.07422,-0.101562 -0.08594,-0.0625 0.0625,-0.05078 -0.07422,-0.101562 -0.125,0.113281 -0.0625,0.05078 z m 0,0"
         id="path17503" />
      <path
         style="fill:#ffffff;fill-opacity:1;fill-rule:nonzero;stroke:none"
         d="M 41.425781,29.746094 C 41.402344,29.632812 41.277344,29.59375 41.265625,29.59375 l -0.03906,0.128906 c 0.01563,0 0.02734,0.01172 0.03906,0.02344 l 0.02344,0.113281 c -0.01172,0.01172 -0.02344,0.02734 -0.02344,0.03906 l 0.08594,0.08984 c 0.0625,-0.101562 0.08984,-0.164062 0.07422,-0.242187 z m 0,0"
         id="path17505" />
      <path
         style="fill:#ffffff;fill-opacity:1;fill-rule:nonzero;stroke:none"
         d="m 41.613281,29.34375 -0.199219,-0.01172 0.01172,-0.191406 0.199219,0.02734 z m 0,0"
         id="path17507" />
      <path
         style="fill:#ffffff;fill-opacity:1;fill-rule:nonzero;stroke:none"
         d="m 46.402344,27.691406 c 0.08984,-0.05078 0.199218,-0.164062 0.1875,0.07422 -0.01172,0.238281 -0.113282,0.164063 -0.1875,0.238281 -0.07422,0.07813 -0.125,-0.238281 0,-0.3125 z m 0,0"
         id="path17509" />
      <path
         style="fill:#ffffff;fill-opacity:1;fill-rule:nonzero;stroke:none"
         d="m 47.460938,26.78125 v -0.02734 c 0,-0.03516 -0.01172,-0.08594 -0.03906,-0.136718 l -0.109375,0.0625 c 0.01172,0.02734 0.01172,0.0625 0.02344,0.08984 0,0.03516 0.01172,0.07422 0.03906,0.101563 0.02344,0.01172 0.04687,0.02344 0.08594,0.01172 L 47.4375,26.753906 c 0,0.01563 0.01172,0.01563 0.02344,0.02734 z m 0,0"
         id="path17511" />
      <path
         style="fill:#ffffff;fill-opacity:1;fill-rule:nonzero;stroke:none"
         d="m 47.1875,26.882812 c 0.03906,0.125 0.07422,0.25 0.07422,0.265626 l 0.11328,-0.05078 c 0,0 -0.05078,-0.128906 -0.07422,-0.253906 z m 0,0"
         id="path17513" />
      <path
         style="fill:#ffffff;fill-opacity:1;fill-rule:nonzero;stroke:none"
         d="m 46.726562,27.386719 -0.125,-0.01172 c -0.01172,0.101562 0.01172,0.226562 0.113282,0.238281 l 0.02344,-0.125 c 0,0 -0.01172,-0.05078 -0.01172,-0.101562 z m 0,0"
         id="path17515" />
      <path
         style="fill:#ffffff;fill-opacity:1;fill-rule:nonzero;stroke:none"
         d="m 46.191406,24.851562 c -0.01172,-0.03906 -0.02344,-0.07812 -0.0625,-0.08984 -0.08594,-0.03906 -0.246094,0.02344 -0.324218,0.07422 l 0.07812,0.101562 c 0.07422,-0.05078 0.183594,-0.07422 0.199219,-0.0625 0,0 0,0 0,-0.01172 z m 0,0"
         id="path17517" />
      <path
         style="fill:#ffffff;fill-opacity:1;fill-rule:nonzero;stroke:none"
         d="m 40.457031,18.046875 c -0.08594,0.08984 -0.273437,0.125 -0.273437,0.125 l -0.0625,0.242187 L 40.019531,18.5 c 0,0 0.02734,0.06641 0,0.214844 -0.02344,0.152344 -0.210937,0.242187 -0.210937,0.242187 l -0.08594,0.101563 c 0,0 -0.496094,0.02344 -0.558594,0 -0.1875,-0.08984 -0.0625,-0.34375 0.0625,-0.316406 C 39.347654,18.765628 39.19922,18.375 39.19922,18.375 l 0.164062,-0.02344 c 0,0 0.02344,-0.378906 0.08594,-0.378906 0.0625,0 -0.02344,-0.128906 -0.101563,-0.191406 -0.08594,-0.0625 -0.183594,-0.277344 -0.273437,-0.25 -0.08594,0.02344 -0.410157,0 -0.410157,0 l -0.0625,0.125 -0.222656,0.03906 c 0,0 0.02344,0.164063 -0.02344,0.214844 -0.125,0.148438 -0.597657,0.464844 -0.398438,-0.06641 l 0.0625,-0.125 v -0.1875 l -0.375,-0.02734 c 0,0 -0.1875,-0.0625 -0.1875,-0.152344 0,-0.08594 -0.02344,-0.1875 -0.02344,-0.1875 L 37,16.671875 36.476562,16.609375 36.4375,16.507812 36.128906,16.46875 c -0.375,-0.1875 -0.710937,-0.02344 -0.648437,0.304688 0.0625,0.316406 0.160156,0.441406 -0.03906,0.441406 -0.210937,0 -0.246094,-0.164063 -0.246094,-0.164063 0,0 -0.164062,-0.0625 -0.164062,0.02344 0,0.08984 -0.0625,0.253906 0,0.34375 0.0625,0.08594 -0.08594,0.210937 -0.148438,0.148437 -0.0625,-0.0625 -0.222656,-0.25 -0.1875,-0.3125 0.03906,-0.06641 -0.285156,-0.46875 0.03906,-0.53125 0.335937,-0.0625 -0.02344,-0.253906 0.09766,-0.304687 l 0.164063,-0.08594 h 0.160156 l 0.101562,-0.08984 -0.4375,-0.0625 -0.308593,-0.02734 c -0.3125,0.214844 -0.375,0.46875 -0.375,0.46875 -0.160157,0.316406 -0.558594,-0.125 -0.410157,-0.304688 0.148438,-0.175781 -0.460937,-0.02344 -0.558593,0.06641 -0.101563,0.08594 -0.414063,0.03516 -0.414063,0.03516 -0.05859,0.191406 -0.347656,-0.02344 -0.273437,-0.148438 0.08984,-0.128906 0.08984,-0.214843 0.08984,-0.214843 l -0.101562,-0.02734 -0.125,0.242187 c -0.285156,0 -0.371094,0.164063 -0.308594,0.277344 0.0625,0.09766 -0.08984,-0.02734 -0.125,0.125 -0.03906,0.152344 0.02344,0.152344 0.148438,0.214844 0.125,0.0625 -0.0625,0.0625 0.02734,0.164062 0.08594,0.101563 0.335937,0 0.183593,0.152344 -0.148437,0.148437 -0.433593,0.08594 -0.433593,0.08594 -0.02734,0.191407 -0.410157,0.152344 -0.460938,0.08984 -0.03906,-0.0625 -0.347656,-0.441406 -0.347656,-0.441406 l -0.398438,-0.02734 c -0.03906,-0.300781 0.1875,-0.148437 0.273438,-0.378906 0.08594,-0.238281 0.125,-0.617188 0.125,-0.617188 0,0 -0.335938,-0.02344 -0.347656,0.08984 -0.02734,0.101563 -0.226563,0.175782 -0.226563,0.175782 0,0 -0.160156,0.0625 -0.09766,0.152343 0.0625,0.08594 -0.125,0.125 -0.125,0.125 0,0 0.03906,0.140625 -0.02344,0.1875 -0.164062,0.179688 -0.585937,0.02734 -0.648437,-0.03516 l -0.25,-0.101563 -0.246094,-0.164062 -0.289062,0.125 -0.08594,0.08984 H 28.375 l -0.02344,0.25 0.558594,0.06641 0.03906,0.527344 -0.222657,-0.07422 h -0.152343 l -0.0625,-0.125 -0.121094,-0.02734 v 0.46875 l 0.121094,0.101563 0.101562,0.09766 0.210938,0.02734 0.03906,0.25 0.519531,0.02734 0.0625,0.101562 0.3125,0.02344 0.597657,0.621093 -0.03906,0.1875 -0.09766,0.0625 c 0.03516,0.152344 -0.273438,0.0625 -0.273438,0.0625 v 0.128907 l 0.148438,0.02344 0.148438,0.08984 0.210937,-0.367188 c 0.226563,-0.152343 0.335937,0.0625 0.347656,0.191407 0.02734,0.125 -0.09766,0.09766 -0.09766,0.09766 v 0.304687 l 0.125,0.03906 c 0.210937,0.25 -0.08594,0.402344 -0.08594,0.402344 l -0.0625,0.214843 c -0.0625,0.1875 -0.289063,0.152344 -0.289063,0.152344 l -0.08594,0.125 -0.25,0.0625 0.488281,0.0625 c 0.04687,-0.175781 0.171875,-0.214844 0.234375,-0.125 0.0625,0.08984 0.0625,0.238281 0.0625,0.238281 l 0.125,0.02734 -0.02344,0.238281 0.121094,0.03906 v 0.679687 l 0.152344,0.164063 c 0.246094,-0.09766 0.246094,0.06641 0.121094,0.152344 -0.121094,0.08984 -0.03516,0.46875 -0.03516,0.46875 l -0.101562,0.101562 v 0.175781 l -0.121094,0.08594 v 0.242187 c -0.214844,-0.101562 -0.460937,-0.0625 -0.523437,0 -0.1875,-0.128906 -0.585938,-0.08984 -0.585938,0.02344 0.125,0.164062 -0.148438,0.214844 -0.148438,0.214844 L 29.671875,23.625 c 0.09766,0.214844 -0.101563,0.242188 -0.101563,0.242188 v 0.402343 l -0.25,0.238281 0.02734,0.558594 c 0,0.148438 0.308594,0.164063 0.371094,0.08594 0.0625,-0.08594 0.3125,0.175781 0.3125,0.175781 h 0.1875 l 0.03516,-0.378906 -0.125,-0.0625 v -0.61719 L 30.34375,24.03125 c 0.246094,-0.08984 0.160156,0.554688 0.160156,0.617188 0.02344,0.238281 0.125,0.214843 0.222656,0.164062 0.214844,-0.08984 0.03906,0.238281 -0.121093,0.214844 -0.164063,-0.02734 -0.0625,0.214844 -0.0625,0.214844 l 0.09766,0.03516 -0.1875,0.152344 -0.160156,0.191406 -0.210938,-0.0625 -0.25,-0.02734 -0.08594,-0.152344 -0.148438,-0.02344 -0.02734,0.300781 -0.09766,0.128906 -0.25,0.25 c 0.335938,0 -0.03906,0.242188 -0.125,0.242188 0.1875,0.0625 -0.02344,0.25 -0.496094,0.101562 v 0.148438 l -0.164062,0.02734 0.152344,0.164062 0.160156,0.02344 -0.0625,0.367187 c 0,0.277344 -0.683594,0.08984 -0.746094,0.02344 l -0.02344,0.378907 -0.125,0.02734 0.02344,0.25 -0.02344,0.367188 0.222656,-0.03906 v 0.152343 l 0.558594,0.02734 0.808593,-0.871094 0.472657,-0.101562 c 0.03906,-0.214844 0.25,0.03906 0.25,0.03906 0.210937,-0.02734 0.25,0.125 0.25,0.125 l 0.273437,0.03906 c 0.222656,0.0625 0.08594,0.08594 0.09766,0.175781 0.02734,0.125 0.125,0.08594 0.125,0.08594 l 0.03906,-0.277343 0.125,0.02734 -0.125,-0.152343 -0.226563,-0.101563 -0.246093,-0.101562 c -0.164063,-0.238282 0.03516,-0.1875 0.210937,-0.164063 h 0.273438 c 0,0 0.3125,0.429688 0.3125,0.53125 0,0.101563 0.148437,0.125 0.148437,0.125 l 0.1875,-0.02344 0.05859,0.152344 h 0.1875 l 0.0625,0.125 h 0.375 l 0.02344,-0.191407 -0.347656,-0.0625 -0.02344,-0.214843 -0.25,-0.0625 c -0.08594,-0.363282 0.0625,-0.464844 0.160156,-0.300782 l 0.125,0.02344 -0.03516,-0.316406 0.148437,-0.03516 -0.03906,-0.441406 -0.125,-0.03906 v -0.152343 l 0.523437,0.02734 c -0.03516,-0.277343 0.02734,-0.40625 0.02734,-0.40625 h 0.148437 l 0.02344,0.101563 0.636719,0.0625 0.445312,-0.515625 c -0.02344,-0.03906 0.05078,-0.0625 0,-0.113281 -0.0625,-0.0625 -0.148437,0 -0.25,-0.0625 -0.09766,-0.06641 0,-0.429688 -0.02344,-0.507813 -0.02344,-0.08594 0.347656,-0.214844 0.285156,-0.02344 -0.0625,0.1875 0,0.277343 0,0.277343 0.273438,-0.253906 0.5,0.02344 0.472656,0.08984 -0.02344,0.0625 0.152344,0.125 0.25,0.0625 0.101563,-0.0625 0.222656,0.1875 0.1875,0.3125 -0.03906,0.128906 -0.410156,0.101563 -0.4375,-0.02344 -0.02344,-0.125 -0.08594,-0.08984 -0.121094,-0.02344 -0.03906,0.0625 -0.226562,0.09766 -0.335937,0.03516 -0.02734,-0.01172 -0.02734,-0.02344 -0.03906,-0.03516 l -0.449218,0.515625 h 0.02734 c 0.246093,0.152344 0.125,0.339844 0.03516,0.378906 -0.08594,0.03906 -0.222656,0.03906 -0.222656,0.03906 l -0.03906,0.08594 -0.535156,0.03906 -0.03516,0.214844 c -0.273437,-0.03906 -0.375,0.25 -0.3125,0.402343 0.0625,0.152344 0,0.277344 0,0.277344 l 0.226563,0.101563 0.285156,-0.08594 c 0.03516,-0.214843 0.222657,-0.253906 0.398438,-0.378906 0.160156,-0.128906 0.433593,0.238281 0.347656,0.402344 -0.08594,0.164062 -0.08594,0.238281 -0.08594,0.238281 l 0.02344,0.191406 -0.210937,0.08594 -0.164063,0.08984 -0.02344,0.101562 h -0.558594 l -0.101563,0.101562 -0.273437,0.02344 -0.08594,0.128906 -0.1875,0.02344 c 0,0 -0.308594,0.152344 -0.1875,0.316406 0.125,0.175781 -0.519531,0.152344 -0.65625,-0.08984 -0.03906,0.214844 -0.273437,0.02734 -0.273437,0.02734 l -0.226563,-0.06641 -0.02344,-0.3125 c -0.03906,-0.214844 -0.4375,-0.214844 -0.410157,-0.0625 0.02344,0.148437 -0.746093,0.0625 -0.746093,0.0625 l -0.25,0.125 -0.222657,0.140625 -0.02734,0.09766 -0.371094,0.03906 -0.164063,0.08984 -0.0625,-0.128906 h -0.160156 l -0.160156,0.242187 c -0.4375,0.02344 -0.847656,0.277344 -0.808594,0.378907 0.03516,0.101562 -0.164062,0.214843 -0.164062,0.214843 l -0.1875,0.0625 -0.125,0.1875 -0.246094,0.08984 -0.03906,0.441406 -0.125,0.08984 v 0.1875 l -0.148438,0.03906 v 0.101562 l -0.210938,0.02344 0.125,0.316406 0.160157,0.08594 c 0.289062,0.03906 0.164062,0.40625 0.164062,0.40625 l 0.160157,0.02344 0.08594,0.242188 0.164063,0.339843 c 0.0625,0.253907 0.246093,0.1875 0.335937,0.175781 0.08594,-0.02344 0.160156,0.253907 0.160156,0.253907 l 0.820313,0.02344 c 0,0 -0.03516,0.08984 0.101562,0.128906 0.148438,0.03516 1.09375,0.08594 1.132813,0.02344 -0.03906,-0.1875 0.519531,-0.238281 0.746093,-0.0625 0.222657,0.164062 0.535157,0.0625 0.535157,0.0625 l 0.308593,0.378906 0.214844,0.464844 0.347656,0.101562 0.246094,0.0625 0.08984,0.367188 0.183594,0.02734 0.0625,0.238281 c 0.226562,0.164063 -0.0625,0.53125 -0.0625,0.53125 v 0.464844 l 0.164062,0.08984 -0.02734,0.175782 0.277344,0.277344 0.308594,0.02734 0.785156,0.84375 0.621094,0.191407 0.101562,0.339843 0.160157,-0.02734 0.125,-0.09766 0.496093,-0.02734 0.25,-0.238282 0.273438,-0.03906 2.300781,-1.980469 -0.210937,-0.128906 v -0.464844 c 0.375,-0.277344 0.398437,-0.769531 0.03906,-0.808594 -0.261718,-0.03906 -0.152344,-0.316406 0.09766,-0.367187 l 0.148438,-0.0625 v -0.1875 l 0.472656,-0.441406 v -0.34375 L 37.160156,31.1875 c -0.460937,-0.164062 0,-1.1875 0.3125,-1.175781 0.308594,0.02344 -0.02734,-1.578125 -0.02734,-1.578125 l -0.160156,-0.08594 0.03516,-0.519531 h -0.222656 l -0.375,0.492187 -0.09766,0.339844 c -0.03906,0.441406 -1.320312,0.367188 -1.382812,0.304688 -0.05859,-0.0625 -0.496094,-0.253906 -0.496094,-0.253906 0,0 -0.335938,-0.277344 -0.398438,-0.1875 C 34.285156,28.609375 34,28.421875 34,28.484375 c 0,0.0625 -0.273438,-0.152344 -0.273438,-0.152344 l -0.410156,-0.148437 0.308594,-0.06641 -0.05859,-0.25 0.53125,0.277343 c 0.0625,0.08594 0.335938,0.0625 0.335938,0.0625 l 0.08984,0.101563 c 0,0 0.160156,-0.02734 0.273437,0.101562 0.09766,0.125 0.644531,0.02344 0.644531,0.02344 l 0.152344,0.125 0.222656,0.08984 0.648438,0.02734 0.02344,-0.40625 0.125,-0.125 -0.02734,-0.253906 0.152343,-0.125 v -0.214844 l 0.125,-0.03906 0.02344,-0.464844 0.09766,-0.02734 V 26 l -0.308594,-0.304688 c -0.02734,0.101563 -0.347656,0.101563 -0.347656,0.101563 0,0 -0.08984,0.152344 -0.152344,0.152344 -0.0625,0 0.08984,0.1875 0.03906,0.3125 -0.03906,0.128906 -0.210938,0.128906 -0.210938,0.128906 l -0.3125,0.08594 -0.08594,0.101563 h -0.335938 l -0.03906,-0.277344 0.375,-0.101562 0.210937,-0.101563 0.09766,-0.210937 c 0.02734,-0.214844 0.277344,-0.191407 0.277344,-0.191407 0,0 0.472656,-0.402343 0.496094,-0.59375 0.02344,-0.1875 0.1875,-0.71875 0.472656,-0.71875 h 0.535156 c 0.210938,-0.08984 0.148438,-0.367187 0.148438,-0.367187 l 0.273438,-0.03516 0.03906,0.148437 c 0,0 0.371094,0.03906 0.410156,-0.02344 0.03516,-0.0625 0.125,-0.214844 0.222656,-0.152344 0.101563,0.0625 0.4375,-0.152344 0.4375,-0.152344 0.02344,-0.148437 0.535157,-0.08594 0.535157,-0.08594 l 0.0625,-0.191406 c 0,0 -0.351563,-0.492188 -0.414063,-0.492188 -0.0625,0 -0.394531,-0.300781 -0.433594,-0.1875 -0.335937,-0.08984 -0.3125,-0.554688 -0.3125,-0.554688 l -0.125,-0.304687 c 0,-0.175781 -0.308593,-0.53125 -0.371093,-0.492187 -0.3125,-0.238282 -0.08594,-0.503907 0,-0.53125 0.08594,-0.02344 0.285156,-0.3125 0.285156,-0.3125 l 0.101563,-0.304688 0.347656,-0.101562 0.03516,-0.277344 -0.183594,-0.02344 c 0,0 0.210938,-0.378906 0.308594,-0.378906 0.101562,0 0.785156,0 0.847656,-0.03906 0.0625,-0.03906 0.1875,-0.378907 0.1875,-0.441407 0,-0.0625 0.160156,-0.08984 0.222656,-0.101562 0.0625,-0.02344 0.210938,-0.1875 0.25,-0.277344 0.109376,-0.214844 -0.02734,-0.746094 -0.113281,-0.65625 z m 0,0"
         id="path17519" />
      <path
         style="fill:#ffffff;fill-opacity:1;fill-rule:nonzero;stroke:none"
         d="m 29,25.722656 c 0.02344,-0.02734 0.0625,0.09766 0.125,0.07422 0.05859,-0.01172 0.08594,0.113281 0.02344,0.113281 -0.0625,0 -0.0625,0.07422 -0.0625,0.113282 0,0.03906 0,0.113281 -0.05078,0.164062 -0.05078,0.05078 -0.08594,0.01172 -0.148437,-0.01172 -0.0625,-0.03906 -0.08594,-0.03906 -0.175781,-0.03906 -0.07422,0 -0.01172,0.125 -0.01172,0.125 0,0 -0.324219,-0.01172 -0.261719,-0.0625 0.0625,-0.05078 0.125,-0.0625 0.07422,-0.101563 -0.04687,-0.03516 0,-0.0625 0,-0.125 0,-0.0625 0.152343,-0.03906 0.113281,-0.07422 -0.05078,-0.05078 0,-0.226563 0.07422,-0.128907 L 28.75,25.65625 c -0.05078,-0.05078 -0.01172,-0.0625 -0.113281,-0.09766 -0.08594,-0.03906 -0.01172,-0.230469 -0.01172,-0.230469 l 0.01172,-0.125 C 28.664059,25.039058 28.972656,25.02734 29,25.164061 c 0.01172,0.140626 0,0.242188 0,0.242188 l 0.08594,0.03516 c 0,0 -0.01172,0.101563 -0.08594,0.101563 -0.07422,0 0,0.05078 -0.05078,0.101562 z m 0,0"
         id="path17521" />
      <path
         style="fill:#ffffff;fill-opacity:1;fill-rule:nonzero;stroke:none"
         d="m 27.976562,25.886719 c 0.05078,-0.101563 0.152344,-0.507813 0.277344,-0.378907 0.121094,0.125 0.199219,0 0.199219,0 0,0 0.05859,0.0625 0.02344,0.1875 -0.02344,0.125 -0.0625,0.253907 -0.136718,0.277344 -0.07422,0.01172 -0.136719,0.0625 -0.238282,0.07813 -0.07422,0.01172 -0.125,-0.164062 -0.125,-0.164062 z m 0,0"
         id="path17523" />
    </g>
  </g>
</svg>
